  0
SECTION
  2
HEADER
  9
$ACADVER
  1
AC1014
  9
$HANDSEED
  5
FFFF
  9
$MEASUREMENT
 70
     1
  0
ENDSEC
  0
SECTION
  2
TABLES
  0
TABLE
  2
VPORT
  5
8
330
0
100
AcDbSymbolTable
 70
     4
  0
VPORT
  5
2E
330
8
100
AcDbSymbolTableRecord
100
AcDbViewportTableRecord
  2
*ACTIVE
 70
     0
 10
0.0
 20
0.0
 11
1.0
 21
1.0
 12
210.0
 22
148.5
 13
0.0
 23
0.0
 14
10.0
 24
10.0
 15
10.0
 25
10.0
 16
0.0
 26
0.0
 36
1.0
 17
0.0
 27
0.0
 37
0.0
 40
341.0
 41
1.24
 42
50.0
 43
0.0
 44
0.0
 50
0.0
 51
0.0
 71
     0
 72
   100
 73
     1
 74
     3
 75
     0
 76
     0
 77
     0
 78
     0
  0
ENDTAB
  0
TABLE
  2
LTYPE
  5
5
330
0
100
AcDbSymbolTable
 70
     1
  0
LTYPE
  5
14
330
5
100
AcDbSymbolTableRecord
100
AcDbLinetypeTableRecord
  2
BYBLOCK
 70
     0
  3

 72
    65
 73
     0
 40
0.0
  0
LTYPE
  5
15
330
5
100
AcDbSymbolTableRecord
100
AcDbLinetypeTableRecord
  2
BYLAYER
 70
     0
  3

 72
    65
 73
     0
 40
0.0
  0
LTYPE
  5
16
330
5
100
AcDbSymbolTableRecord
100
AcDbLinetypeTableRecord
  2
CONTINUOUS
 70
     0
  3
Solid line
 72
    65
 73
     0
 40
0.0
  0
ENDTAB
  0
TABLE
  2
LAYER
  5
2
100
AcDbSymbolTable
 70
2
  0
LAYER
  5
50
100
AcDbSymbolTableRecord
100
AcDbLayerTableRecord
  2
0
 70
0
  6
CONTINUOUS
  0
LAYER
  5
51
100
AcDbSymbolTableRecord
100
AcDbLayerTableRecord
  2
Layer_1
 70
0
  6
CONTINUOUS
  0
ENDTAB
  0
TABLE
  2
STYLE
  5
3
330
0
100
AcDbSymbolTable
 70
     1
  0
STYLE
  5
11
330
3
100
AcDbSymbolTableRecord
100
AcDbTextStyleTableRecord
  2
STANDARD
 70
     0
 40
0.0
 41
1.0
 50
0.0
 71
     0
 42
2.5
  3
txt
  4

  0
ENDTAB
  0
TABLE
  2
VIEW
  5
6
330
0
100
AcDbSymbolTable
 70
     0
  0
ENDTAB
  0
TABLE
  2
UCS
  5
7
330
0
100
AcDbSymbolTable
 70
     0
  0
ENDTAB
  0
TABLE
  2
APPID
  5
9
330
0
100
AcDbSymbolTable
 70
     2
  0
APPID
  5
12
330
9
100
AcDbSymbolTableRecord
100
AcDbRegAppTableRecord
  2
ACAD
 70
     0
  0
ENDTAB
  0
TABLE
  2
DIMSTYLE
  5
A
330
0
100
AcDbSymbolTable
 70
     1
  0
DIMSTYLE
105
27
330
A
100
AcDbSymbolTableRecord
100
AcDbDimStyleTableRecord
  2
ISO-25
 70
     0
  3

  4

  5

  6

  7

 40
1.0
 41
2.5
 42
0.625
 43
3.75
 44
1.25
 45
0.0
 46
0.0
 47
0.0
 48
0.0
140
2.5
141
2.5
142
0.0
143
0.03937007874016
144
1.0
145
0.0
146
1.0
147
0.625
 71
     0
 72
     0
 73
     0
 74
     0
 75
     0
 76
     0
 77
     1
 78
     8
170
     0
171
     3
172
     1
173
     0
174
     0
175
     0
176
     0
177
     0
178
     0
270
     2
271
     2
272
     2
273
     2
274
     3
340
11
275
     0
280
     0
281
     0
282
     0
283
     0
284
     8
285
     0
286
     0
287
     3
288
     0
  0
ENDTAB
  0
TABLE
  2
BLOCK_RECORD
  5
1
330
0
100
AcDbSymbolTable
 70
     1
  0
BLOCK_RECORD
  5
1F
330
1
100
AcDbSymbolTableRecord
100
AcDbBlockTableRecord
  2
*MODEL_SPACE
  0
BLOCK_RECORD
  5
1B
330
1
100
AcDbSymbolTableRecord
100
AcDbBlockTableRecord
  2
*PAPER_SPACE
  0
ENDTAB
  0
ENDSEC
  0
SECTION
  2
BLOCKS
  0
BLOCK
  5
20
330
1F
100
AcDbEntity
  8
0
100
AcDbBlockBegin
  2
*MODEL_SPACE
 70
     0
 10
0.0
 20
0.0
 30
0.0
  3
*MODEL_SPACE
  1

  0
ENDBLK
  5
21
330
1F
100
AcDbEntity
  8
0
100
AcDbBlockEnd
  0
BLOCK
  5
1C
330
1B
100
AcDbEntity
 67
     1
  8
0
100
AcDbBlockBegin
  2
*PAPER_SPACE
  1

  0
ENDBLK
  5
1D
330
1B
100
AcDbEntity
 67
     1
  8
0
100
AcDbBlockEnd
  0
ENDSEC
  0
SECTION
  2
ENTITIES
  0
LWPOLYLINE
  5
100
100
AcDbEntity
  8
Layer_1
 62
7
100
AcDbPolyline
 90
145
 70
0
 10
145.184707
 20
150.476656
 30
0.0
 10
148.861498
 20
149.575802
 30
0.0
 10
152.537442
 20
147.706362
 30
0.0
 10
152.537442
 20
145.804749
 30
0.0
 10
148.861498
 20
143.935309
 30
0.0
 10
145.184707
 20
143.034456
 30
0.0
 10
144.807093
 20
140.164820
 30
0.0
 10
148.125180
 20
138.343076
 30
0.0
 10
151.192089
 20
135.586047
 30
0.0
 10
150.699893
 20
133.749062
 30
0.0
 10
146.665244
 20
132.895058
 30
0.0
 10
142.880927
 20
132.976338
 30
0.0
 10
141.773204
 20
130.302282
 30
0.0
 10
144.506809
 20
127.683824
 30
0.0
 10
146.755838
 20
124.227167
 30
0.0
 10
145.804749
 20
122.580118
 30
0.0
 10
141.686562
 20
122.799122
 30
0.0
 10
138.052104
 20
123.857173
 30
0.0
 10
136.290191
 20
121.561013
 30
0.0
 10
138.253047
 20
118.324207
 30
0.0
 10
139.530384
 20
114.403293
 30
0.0
 10
138.185596
 20
113.058504
 30
0.0
 10
134.264682
 20
114.335842
 30
0.0
 10
131.027876
 20
116.298698
 30
0.0
 10
128.731716
 20
114.536784
 30
0.0
 10
129.789767
 20
110.902327
 30
0.0
 10
130.008771
 20
106.784140
 30
0.0
 10
128.361722
 20
105.833051
 30
0.0
 10
124.905064
 20
108.082080
 30
0.0
 10
122.286607
 20
110.815684
 30
0.0
 10
119.612551
 20
109.707962
 30
0.0
 10
119.693831
 20
105.923644
 30
0.0
 10
118.839827
 20
101.888996
 30
0.0
 10
117.002842
 20
101.396800
 30
0.0
 10
114.245813
 20
104.463709
 30
0.0
 10
112.424069
 20
107.781796
 30
0.0
 10
109.554433
 20
107.404182
 30
0.0
 10
108.653580
 20
103.727391
 30
0.0
 10
106.784140
 20
100.051447
 30
0.0
 10
104.882527
 20
100.051447
 30
0.0
 10
103.013087
 20
103.727391
 30
0.0
 10
102.112233
 20
107.404182
 30
0.0
 10
99.242598
 20
107.781796
 30
0.0
 10
97.420853
 20
104.463709
 30
0.0
 10
94.663824
 20
101.396800
 30
0.0
 10
92.826840
 20
101.888996
 30
0.0
 10
91.972836
 20
105.923644
 30
0.0
 10
92.054116
 20
109.707962
 30
0.0
 10
89.380060
 20
110.815684
 30
0.0
 10
86.761602
 20
108.082080
 30
0.0
 10
83.304944
 20
105.833051
 30
0.0
 10
81.657896
 20
106.784140
 30
0.0
 10
81.876900
 20
110.902327
 30
0.0
 10
82.934951
 20
114.536784
 30
0.0
 10
80.638791
 20
116.298698
 30
0.0
 10
77.401984
 20
114.335842
 30
0.0
 10
73.481071
 20
113.058504
 30
0.0
 10
72.136282
 20
114.403293
 30
0.0
 10
73.413620
 20
118.324207
 30
0.0
 10
75.376476
 20
121.561013
 30
0.0
 10
73.614562
 20
123.857173
 30
0.0
 10
69.980104
 20
122.799122
 30
0.0
 10
65.861918
 20
122.580118
 30
0.0
 10
64.910829
 20
124.227167
 30
0.0
 10
67.159858
 20
127.683824
 30
0.0
 10
69.893462
 20
130.302282
 30
0.0
 10
68.785740
 20
132.976338
 30
0.0
 10
65.001422
 20
132.895058
 30
0.0
 10
60.966773
 20
133.749062
 30
0.0
 10
60.474578
 20
135.586047
 30
0.0
 10
63.541487
 20
138.343076
 30
0.0
 10
66.859573
 20
140.164820
 30
0.0
 10
66.481960
 20
143.034456
 30
0.0
 10
62.805169
 20
143.935309
 30
0.0
 10
59.129224
 20
145.804749
 30
0.0
 10
59.129224
 20
147.706362
 30
0.0
 10
62.805169
 20
149.575802
 30
0.0
 10
66.481960
 20
150.476656
 30
0.0
 10
66.859573
 20
153.346291
 30
0.0
 10
63.541487
 20
155.168036
 30
0.0
 10
60.474578
 20
157.925064
 30
0.0
 10
60.966773
 20
159.762049
 30
0.0
 10
65.001422
 20
160.616053
 30
0.0
 10
68.785740
 20
160.534773
 30
0.0
 10
69.893462
 20
163.208829
 30
0.0
 10
67.159858
 20
165.827287
 30
0.0
 10
64.910829
 20
169.283944
 30
0.0
 10
65.861918
 20
170.930993
 30
0.0
 10
69.980104
 20
170.711989
 30
0.0
 10
73.614562
 20
169.653938
 30
0.0
 10
75.376476
 20
171.950098
 30
0.0
 10
73.413620
 20
175.186904
 30
0.0
 10
72.136282
 20
179.107818
 30
0.0
 10
73.481071
 20
180.452607
 30
0.0
 10
77.401984
 20
179.175269
 30
0.0
 10
80.638791
 20
177.212413
 30
0.0
 10
82.934951
 20
178.974327
 30
0.0
 10
81.876900
 20
182.608784
 30
0.0
 10
81.657896
 20
186.726971
 30
0.0
 10
83.304944
 20
187.678060
 30
0.0
 10
86.761602
 20
185.429031
 30
0.0
 10
89.380060
 20
182.695427
 30
0.0
 10
92.054116
 20
183.803149
 30
0.0
 10
91.972836
 20
187.587467
 30
0.0
 10
92.826840
 20
191.622116
 30
0.0
 10
94.663824
 20
192.114311
 30
0.0
 10
97.420853
 20
189.047402
 30
0.0
 10
99.242598
 20
185.729316
 30
0.0
 10
102.112233
 20
186.106929
 30
0.0
 10
103.013087
 20
189.783720
 30
0.0
 10
104.882527
 20
193.459664
 30
0.0
 10
106.784140
 20
193.459664
 30
0.0
 10
108.653580
 20
189.783720
 30
0.0
 10
109.554433
 20
186.106929
 30
0.0
 10
112.424069
 20
185.729316
 30
0.0
 10
114.245813
 20
189.047402
 30
0.0
 10
117.002842
 20
192.114311
 30
0.0
 10
118.839827
 20
191.622116
 30
0.0
 10
119.693831
 20
187.587467
 30
0.0
 10
119.612551
 20
183.803149
 30
0.0
 10
122.286607
 20
182.695427
 30
0.0
 10
124.905064
 20
185.429031
 30
0.0
 10
128.361722
 20
187.678060
 30
0.0
 10
130.008771
 20
186.726971
 30
0.0
 10
129.789767
 20
182.608784
 30
0.0
 10
128.731716
 20
178.974327
 30
0.0
 10
131.027876
 20
177.212413
 30
0.0
 10
134.264682
 20
179.175269
 30
0.0
 10
138.185596
 20
180.452607
 30
0.0
 10
139.530384
 20
179.107818
 30
0.0
 10
138.253047
 20
175.186904
 30
0.0
 10
136.290191
 20
171.950098
 30
0.0
 10
138.052104
 20
169.653938
 30
0.0
 10
141.686562
 20
170.711989
 30
0.0
 10
145.804749
 20
170.930993
 30
0.0
 10
146.755838
 20
169.283944
 30
0.0
 10
144.506809
 20
165.827287
 30
0.0
 10
141.773204
 20
163.208829
 30
0.0
 10
142.880927
 20
160.534773
 30
0.0
 10
146.665244
 20
160.616053
 30
0.0
 10
150.699893
 20
159.762049
 30
0.0
 10
151.192089
 20
157.925064
 30
0.0
 10
148.125180
 20
155.168036
 30
0.0
 10
144.807093
 20
153.346291
 30
0.0
 10
145.184707
 20
150.476656
 30
0.0
  0
ENDSEC
  0
SECTION
  2
OBJECTS
  0
DICTIONARY
  5
C
330
0
100
AcDbDictionary
  3
ACAD_GROUP
350
D
  3
ACAD_MLINESTYLE
350
17
  0
DICTIONARY
  5
D
330
C
100
AcDbDictionary
  0
DICTIONARY
  5
1A
330
C
100
AcDbDictionary
  0
DICTIONARY
  5
17
330
C
100
AcDbDictionary
  3
STANDARD
350
18
  0
DICTIONARY
  5
19
330
C
100
AcDbDictionary
  0
ENDSEC
  0
EOF
