  0
SECTION
  2
HEADER
  9
$ACADVER
  1
AC1014
  9
$HANDSEED
  5
FFFF
  9
$MEASUREMENT
 70
     1
  0
ENDSEC
  0
SECTION
  2
TABLES
  0
TABLE
  2
VPORT
  5
8
330
0
100
AcDbSymbolTable
 70
     4
  0
VPORT
  5
2E
330
8
100
AcDbSymbolTableRecord
100
AcDbViewportTableRecord
  2
*ACTIVE
 70
     0
 10
0.0
 20
0.0
 11
1.0
 21
1.0
 12
210.0
 22
148.5
 13
0.0
 23
0.0
 14
10.0
 24
10.0
 15
10.0
 25
10.0
 16
0.0
 26
0.0
 36
1.0
 17
0.0
 27
0.0
 37
0.0
 40
341.0
 41
1.24
 42
50.0
 43
0.0
 44
0.0
 50
0.0
 51
0.0
 71
     0
 72
   100
 73
     1
 74
     3
 75
     0
 76
     0
 77
     0
 78
     0
  0
ENDTAB
  0
TABLE
  2
LTYPE
  5
5
330
0
100
AcDbSymbolTable
 70
     1
  0
LTYPE
  5
14
330
5
100
AcDbSymbolTableRecord
100
AcDbLinetypeTableRecord
  2
BYBLOCK
 70
     0
  3

 72
    65
 73
     0
 40
0.0
  0
LTYPE
  5
15
330
5
100
AcDbSymbolTableRecord
100
AcDbLinetypeTableRecord
  2
BYLAYER
 70
     0
  3

 72
    65
 73
     0
 40
0.0
  0
LTYPE
  5
16
330
5
100
AcDbSymbolTableRecord
100
AcDbLinetypeTableRecord
  2
CONTINUOUS
 70
     0
  3
Solid line
 72
    65
 73
     0
 40
0.0
  0
ENDTAB
  0
TABLE
  2
LAYER
  5
2
100
AcDbSymbolTable
 70
2
  0
LAYER
  5
50
100
AcDbSymbolTableRecord
100
AcDbLayerTableRecord
  2
0
 70
0
  6
CONTINUOUS
  0
LAYER
  5
51
100
AcDbSymbolTableRecord
100
AcDbLayerTableRecord
  2
Layer_1
 70
0
  6
CONTINUOUS
  0
ENDTAB
  0
TABLE
  2
STYLE
  5
3
330
0
100
AcDbSymbolTable
 70
     1
  0
STYLE
  5
11
330
3
100
AcDbSymbolTableRecord
100
AcDbTextStyleTableRecord
  2
STANDARD
 70
     0
 40
0.0
 41
1.0
 50
0.0
 71
     0
 42
2.5
  3
txt
  4

  0
ENDTAB
  0
TABLE
  2
VIEW
  5
6
330
0
100
AcDbSymbolTable
 70
     0
  0
ENDTAB
  0
TABLE
  2
UCS
  5
7
330
0
100
AcDbSymbolTable
 70
     0
  0
ENDTAB
  0
TABLE
  2
APPID
  5
9
330
0
100
AcDbSymbolTable
 70
     2
  0
APPID
  5
12
330
9
100
AcDbSymbolTableRecord
100
AcDbRegAppTableRecord
  2
ACAD
 70
     0
  0
ENDTAB
  0
TABLE
  2
DIMSTYLE
  5
A
330
0
100
AcDbSymbolTable
 70
     1
  0
DIMSTYLE
105
27
330
A
100
AcDbSymbolTableRecord
100
AcDbDimStyleTableRecord
  2
ISO-25
 70
     0
  3

  4

  5

  6

  7

 40
1.0
 41
2.5
 42
0.625
 43
3.75
 44
1.25
 45
0.0
 46
0.0
 47
0.0
 48
0.0
140
2.5
141
2.5
142
0.0
143
0.03937007874016
144
1.0
145
0.0
146
1.0
147
0.625
 71
     0
 72
     0
 73
     0
 74
     0
 75
     0
 76
     0
 77
     1
 78
     8
170
     0
171
     3
172
     1
173
     0
174
     0
175
     0
176
     0
177
     0
178
     0
270
     2
271
     2
272
     2
273
     2
274
     3
340
11
275
     0
280
     0
281
     0
282
     0
283
     0
284
     8
285
     0
286
     0
287
     3
288
     0
  0
ENDTAB
  0
TABLE
  2
BLOCK_RECORD
  5
1
330
0
100
AcDbSymbolTable
 70
     1
  0
BLOCK_RECORD
  5
1F
330
1
100
AcDbSymbolTableRecord
100
AcDbBlockTableRecord
  2
*MODEL_SPACE
  0
BLOCK_RECORD
  5
1B
330
1
100
AcDbSymbolTableRecord
100
AcDbBlockTableRecord
  2
*PAPER_SPACE
  0
ENDTAB
  0
ENDSEC
  0
SECTION
  2
BLOCKS
  0
BLOCK
  5
20
330
1F
100
AcDbEntity
  8
0
100
AcDbBlockBegin
  2
*MODEL_SPACE
 70
     0
 10
0.0
 20
0.0
 30
0.0
  3
*MODEL_SPACE
  1

  0
ENDBLK
  5
21
330
1F
100
AcDbEntity
  8
0
100
AcDbBlockEnd
  0
BLOCK
  5
1C
330
1B
100
AcDbEntity
 67
     1
  8
0
100
AcDbBlockBegin
  2
*PAPER_SPACE
  1

  0
ENDBLK
  5
1D
330
1B
100
AcDbEntity
 67
     1
  8
0
100
AcDbBlockEnd
  0
ENDSEC
  0
SECTION
  2
ENTITIES
  0
LWPOLYLINE
  5
100
100
AcDbEntity
  8
Layer_1
 62
7
100
AcDbPolyline
 90
181
 70
0
 10
155.989302
 20
150.652762
 30
0.0
 10
159.659884
 20
149.576367
 30
0.0
 10
163.318613
 20
147.741922
 30
0.0
 10
163.318613
 20
145.769189
 30
0.0
 10
159.659884
 20
143.934744
 30
0.0
 10
155.989302
 20
142.858349
 30
0.0
 10
155.703411
 20
140.139420
 30
0.0
 10
159.070322
 20
138.323602
 30
0.0
 10
162.267618
 20
135.768362
 30
0.0
 10
161.857549
 20
133.838809
 30
0.0
 10
157.897124
 20
132.805029
 30
0.0
 10
154.082891
 20
132.515469
 30
0.0
 10
153.238200
 20
129.915356
 30
0.0
 10
156.153838
 20
127.439420
 30
0.0
 10
158.750000
 20
124.275144
 30
0.0
 10
157.947642
 20
122.473156
 30
0.0
 10
153.859089
 20
122.285196
 30
0.0
 10
150.067998
 20
122.795171
 30
0.0
 10
148.700913
 20
120.427609
 30
0.0
 10
151.037996
 20
117.399364
 30
0.0
 10
152.919853
 20
113.764342
 30
0.0
 10
151.760202
 20
112.168658
 30
0.0
 10
147.721884
 20
112.834984
 30
0.0
 10
144.119600
 20
114.121918
 30
0.0
 10
142.290236
 20
112.090200
 30
0.0
 10
143.946598
 20
108.642291
 30
0.0
 10
145.031460
 20
104.695696
 30
0.0
 10
143.565598
 20
103.375742
 30
0.0
 10
139.753904
 20
104.867004
 30
0.0
 10
136.498189
 20
106.874733
 30
0.0
 10
134.286413
 20
105.267760
 30
0.0
 10
135.189524
 20
101.550893
 30
0.0
 10
135.430260
 20
97.464880
 30
0.0
 10
133.721969
 20
96.478513
 30
0.0
 10
130.303693
 20
98.729800
 30
0.0
 10
127.536222
 20
101.370553
 30
0.0
 10
125.038838
 20
100.258598
 30
0.0
 10
125.149469
 20
96.435051
 30
0.0
 10
124.535353
 20
92.388549
 30
0.0
 10
122.659140
 20
91.778949
 30
0.0
 10
119.783860
 20
94.691764
 30
0.0
 10
117.625989
 20
97.850113
 30
0.0
 10
114.951933
 20
97.281718
 30
0.0
 10
114.265287
 20
93.518567
 30
0.0
 10
112.823131
 20
89.688247
 30
0.0
 10
110.861122
 20
89.481942
 30
0.0
 10
108.654144
 20
92.929004
 30
0.0
 10
107.200418
 20
96.466942
 30
0.0
 10
104.466249
 20
96.466942
 30
0.0
 10
103.012522
 20
92.929004
 30
0.0
 10
100.805544
 20
89.481942
 30
0.0
 10
98.843536
 20
89.688247
 30
0.0
 10
97.401380
 20
93.518567
 30
0.0
 10
96.714733
 20
97.281718
 30
0.0
 10
94.040678
 20
97.850113
 30
0.0
 10
91.882807
 20
94.691764
 30
0.0
 10
89.007527
 20
91.778949
 30
0.0
 10
87.131313
 20
92.388549
 30
0.0
 10
86.517198
 20
96.435051
 30
0.0
 10
86.627829
 20
100.258598
 30
0.0
 10
84.130444
 20
101.370553
 30
0.0
 10
81.362973
 20
98.729800
 30
0.0
 10
77.944698
 20
96.478513
 30
0.0
 10
76.236407
 20
97.464880
 30
0.0
 10
76.477142
 20
101.550893
 30
0.0
 10
77.380253
 20
105.267760
 30
0.0
 10
75.168478
 20
106.874733
 30
0.0
 10
71.912762
 20
104.867004
 30
0.0
 10
68.101069
 20
103.375742
 30
0.0
 10
66.635207
 20
104.695696
 30
0.0
 10
67.720069
 20
108.642291
 30
0.0
 10
69.376431
 20
112.090200
 30
0.0
 10
67.547067
 20
114.121918
 30
0.0
 10
63.944782
 20
112.834984
 30
0.0
 10
59.906464
 20
112.168658
 30
0.0
 10
58.746813
 20
113.764342
 30
0.0
 10
60.628671
 20
117.399364
 30
0.0
 10
62.965753
 20
120.427609
 30
0.0
 10
61.598669
 20
122.795171
 30
0.0
 10
57.807578
 20
122.285196
 30
0.0
 10
53.719024
 20
122.473156
 30
0.0
 10
52.916667
 20
124.275144
 30
0.0
 10
55.512829
 20
127.439420
 30
0.0
 10
58.428467
 20
129.915356
 30
0.0
 10
57.583776
 20
132.515469
 30
0.0
 10
53.769542
 20
132.805029
 30
0.0
 10
49.809118
 20
133.838809
 30
0.0
 10
49.399049
 20
135.768362
 30
0.0
 10
52.596344
 20
138.323602
 30
0.0
 10
55.963256
 20
140.139420
 30
0.0
 10
55.677364
 20
142.858349
 30
0.0
 10
52.006782
 20
143.934744
 30
0.0
 10
48.348053
 20
145.769189
 30
0.0
 10
48.348053
 20
147.741922
 30
0.0
 10
52.006782
 20
149.576367
 30
0.0
 10
55.677364
 20
150.652762
 30
0.0
 10
55.963256
 20
153.371691
 30
0.0
 10
52.596344
 20
155.187509
 30
0.0
 10
49.399049
 20
157.742749
 30
0.0
 10
49.809118
 20
159.672302
 30
0.0
 10
53.769542
 20
160.706082
 30
0.0
 10
57.583776
 20
160.995642
 30
0.0
 10
58.428467
 20
163.595756
 30
0.0
 10
55.512829
 20
166.071691
 30
0.0
 10
52.916667
 20
169.235967
 30
0.0
 10
53.719024
 20
171.037956
 30
0.0
 10
57.807578
 20
171.225916
 30
0.0
 10
61.598669
 20
170.715940
 30
0.0
 10
62.965753
 20
173.083502
 30
0.0
 10
60.628671
 20
176.111747
 30
0.0
 10
58.746813
 20
179.746769
 30
0.0
 10
59.906464
 20
181.342453
 30
0.0
 10
63.944782
 20
180.676127
 30
0.0
 10
67.547067
 20
179.389193
 30
0.0
 10
69.376431
 20
181.420911
 30
0.0
 10
67.720069
 20
184.868820
 30
0.0
 10
66.635207
 20
188.815416
 30
0.0
 10
68.101069
 20
190.135369
 30
0.0
 10
71.912762
 20
188.644107
 30
0.0
 10
75.168478
 20
186.636378
 30
0.0
 10
77.380253
 20
188.243351
 30
0.0
 10
76.477142
 20
191.960218
 30
0.0
 10
76.236407
 20
196.046231
 30
0.0
 10
77.944698
 20
197.032598
 30
0.0
 10
81.362973
 20
194.781311
 30
0.0
 10
84.130444
 20
192.140558
 30
0.0
 10
86.627829
 20
193.252513
 30
0.0
 10
86.517198
 20
197.076060
 30
0.0
 10
87.131313
 20
201.122562
 30
0.0
 10
89.007527
 20
201.732162
 30
0.0
 10
91.882807
 20
198.819347
 30
0.0
 10
94.040678
 20
195.660998
 30
0.0
 10
96.714733
 20
196.229393
 30
0.0
 10
97.401380
 20
199.992544
 30
0.0
 10
98.843536
 20
203.822864
 30
0.0
 10
100.805544
 20
204.029169
 30
0.0
 10
103.012522
 20
200.582107
 30
0.0
 10
104.466249
 20
197.044169
 30
0.0
 10
107.200418
 20
197.044169
 30
0.0
 10
108.654144
 20
200.582107
 30
0.0
 10
110.861122
 20
204.029169
 30
0.0
 10
112.823131
 20
203.822864
 30
0.0
 10
114.265287
 20
199.992544
 30
0.0
 10
114.951933
 20
196.229393
 30
0.0
 10
117.625989
 20
195.660998
 30
0.0
 10
119.783860
 20
198.819347
 30
0.0
 10
122.659140
 20
201.732162
 30
0.0
 10
124.535353
 20
201.122562
 30
0.0
 10
125.149469
 20
197.076060
 30
0.0
 10
125.038838
 20
193.252513
 30
0.0
 10
127.536222
 20
192.140558
 30
0.0
 10
130.303693
 20
194.781311
 30
0.0
 10
133.721969
 20
197.032598
 30
0.0
 10
135.430260
 20
196.046231
 30
0.0
 10
135.189524
 20
191.960218
 30
0.0
 10
134.286413
 20
188.243351
 30
0.0
 10
136.498189
 20
186.636378
 30
0.0
 10
139.753904
 20
188.644107
 30
0.0
 10
143.565598
 20
190.135369
 30
0.0
 10
145.031460
 20
188.815416
 30
0.0
 10
143.946598
 20
184.868820
 30
0.0
 10
142.290236
 20
181.420911
 30
0.0
 10
144.119600
 20
179.389193
 30
0.0
 10
147.721884
 20
180.676127
 30
0.0
 10
151.760202
 20
181.342453
 30
0.0
 10
152.919853
 20
179.746769
 30
0.0
 10
151.037996
 20
176.111747
 30
0.0
 10
148.700913
 20
173.083502
 30
0.0
 10
150.067998
 20
170.715940
 30
0.0
 10
153.859089
 20
171.225916
 30
0.0
 10
157.947642
 20
171.037956
 30
0.0
 10
158.750000
 20
169.235967
 30
0.0
 10
156.153838
 20
166.071691
 30
0.0
 10
153.238200
 20
163.595756
 30
0.0
 10
154.082891
 20
160.995642
 30
0.0
 10
157.897124
 20
160.706082
 30
0.0
 10
161.857549
 20
159.672302
 30
0.0
 10
162.267618
 20
157.742749
 30
0.0
 10
159.070322
 20
155.187509
 30
0.0
 10
155.703411
 20
153.371691
 30
0.0
 10
155.989302
 20
150.652762
 30
0.0
  0
ENDSEC
  0
SECTION
  2
OBJECTS
  0
DICTIONARY
  5
C
330
0
100
AcDbDictionary
  3
ACAD_GROUP
350
D
  3
ACAD_MLINESTYLE
350
17
  0
DICTIONARY
  5
D
330
C
100
AcDbDictionary
  0
DICTIONARY
  5
1A
330
C
100
AcDbDictionary
  0
DICTIONARY
  5
17
330
C
100
AcDbDictionary
  3
STANDARD
350
18
  0
DICTIONARY
  5
19
330
C
100
AcDbDictionary
  0
ENDSEC
  0
EOF
