  0
SECTION
  2
HEADER
  9
$ACADVER
  1
AC1014
  9
$HANDSEED
  5
FFFF
  9
$MEASUREMENT
 70
     1
  0
ENDSEC
  0
SECTION
  2
TABLES
  0
TABLE
  2
VPORT
  5
8
330
0
100
AcDbSymbolTable
 70
     4
  0
VPORT
  5
2E
330
8
100
AcDbSymbolTableRecord
100
AcDbViewportTableRecord
  2
*ACTIVE
 70
     0
 10
0.0
 20
0.0
 11
1.0
 21
1.0
 12
210.0
 22
148.5
 13
0.0
 23
0.0
 14
10.0
 24
10.0
 15
10.0
 25
10.0
 16
0.0
 26
0.0
 36
1.0
 17
0.0
 27
0.0
 37
0.0
 40
341.0
 41
1.24
 42
50.0
 43
0.0
 44
0.0
 50
0.0
 51
0.0
 71
     0
 72
   100
 73
     1
 74
     3
 75
     0
 76
     0
 77
     0
 78
     0
  0
ENDTAB
  0
TABLE
  2
LTYPE
  5
5
330
0
100
AcDbSymbolTable
 70
     1
  0
LTYPE
  5
14
330
5
100
AcDbSymbolTableRecord
100
AcDbLinetypeTableRecord
  2
BYBLOCK
 70
     0
  3

 72
    65
 73
     0
 40
0.0
  0
LTYPE
  5
15
330
5
100
AcDbSymbolTableRecord
100
AcDbLinetypeTableRecord
  2
BYLAYER
 70
     0
  3

 72
    65
 73
     0
 40
0.0
  0
LTYPE
  5
16
330
5
100
AcDbSymbolTableRecord
100
AcDbLinetypeTableRecord
  2
CONTINUOUS
 70
     0
  3
Solid line
 72
    65
 73
     0
 40
0.0
  0
ENDTAB
  0
TABLE
  2
LAYER
  5
2
100
AcDbSymbolTable
 70
2
  0
LAYER
  5
50
100
AcDbSymbolTableRecord
100
AcDbLayerTableRecord
  2
0
 70
0
  6
CONTINUOUS
  0
LAYER
  5
51
100
AcDbSymbolTableRecord
100
AcDbLayerTableRecord
  2
Layer_1
 70
0
  6
CONTINUOUS
  0
ENDTAB
  0
TABLE
  2
STYLE
  5
3
330
0
100
AcDbSymbolTable
 70
     1
  0
STYLE
  5
11
330
3
100
AcDbSymbolTableRecord
100
AcDbTextStyleTableRecord
  2
STANDARD
 70
     0
 40
0.0
 41
1.0
 50
0.0
 71
     0
 42
2.5
  3
txt
  4

  0
ENDTAB
  0
TABLE
  2
VIEW
  5
6
330
0
100
AcDbSymbolTable
 70
     0
  0
ENDTAB
  0
TABLE
  2
UCS
  5
7
330
0
100
AcDbSymbolTable
 70
     0
  0
ENDTAB
  0
TABLE
  2
APPID
  5
9
330
0
100
AcDbSymbolTable
 70
     2
  0
APPID
  5
12
330
9
100
AcDbSymbolTableRecord
100
AcDbRegAppTableRecord
  2
ACAD
 70
     0
  0
ENDTAB
  0
TABLE
  2
DIMSTYLE
  5
A
330
0
100
AcDbSymbolTable
 70
     1
  0
DIMSTYLE
105
27
330
A
100
AcDbSymbolTableRecord
100
AcDbDimStyleTableRecord
  2
ISO-25
 70
     0
  3

  4

  5

  6

  7

 40
1.0
 41
2.5
 42
0.625
 43
3.75
 44
1.25
 45
0.0
 46
0.0
 47
0.0
 48
0.0
140
2.5
141
2.5
142
0.0
143
0.03937007874016
144
1.0
145
0.0
146
1.0
147
0.625
 71
     0
 72
     0
 73
     0
 74
     0
 75
     0
 76
     0
 77
     1
 78
     8
170
     0
171
     3
172
     1
173
     0
174
     0
175
     0
176
     0
177
     0
178
     0
270
     2
271
     2
272
     2
273
     2
274
     3
340
11
275
     0
280
     0
281
     0
282
     0
283
     0
284
     8
285
     0
286
     0
287
     3
288
     0
  0
ENDTAB
  0
TABLE
  2
BLOCK_RECORD
  5
1
330
0
100
AcDbSymbolTable
 70
     1
  0
BLOCK_RECORD
  5
1F
330
1
100
AcDbSymbolTableRecord
100
AcDbBlockTableRecord
  2
*MODEL_SPACE
  0
BLOCK_RECORD
  5
1B
330
1
100
AcDbSymbolTableRecord
100
AcDbBlockTableRecord
  2
*PAPER_SPACE
  0
ENDTAB
  0
ENDSEC
  0
SECTION
  2
BLOCKS
  0
BLOCK
  5
20
330
1F
100
AcDbEntity
  8
0
100
AcDbBlockBegin
  2
*MODEL_SPACE
 70
     0
 10
0.0
 20
0.0
 30
0.0
  3
*MODEL_SPACE
  1

  0
ENDBLK
  5
21
330
1F
100
AcDbEntity
  8
0
100
AcDbBlockEnd
  0
BLOCK
  5
1C
330
1B
100
AcDbEntity
 67
     1
  8
0
100
AcDbBlockBegin
  2
*PAPER_SPACE
  1

  0
ENDBLK
  5
1D
330
1B
100
AcDbEntity
 67
     1
  8
0
100
AcDbBlockEnd
  0
ENDSEC
  0
SECTION
  2
ENTITIES
  0
LWPOLYLINE
  5
100
100
AcDbEntity
  8
Layer_1
 62
7
100
AcDbPolyline
 90
289
 70
0
 10
188.377124
 20
150.890676
 30
0.0
 10
192.027951
 20
149.577213
 30
0.0
 10
195.661280
 20
147.798084
 30
0.0
 10
195.661280
 20
145.713027
 30
0.0
 10
192.027951
 20
143.933898
 30
0.0
 10
188.377124
 20
142.620436
 30
0.0
 10
188.210896
 20
140.081282
 30
0.0
 10
191.658804
 20
138.302436
 30
0.0
 10
195.029102
 20
136.064131
 30
0.0
 10
194.756758
 20
133.997136
 30
0.0
 10
190.922204
 20
132.707380
 30
0.0
 10
187.131396
 20
131.881598
 30
0.0
 10
186.634967
 20
129.385907
 30
0.0
 10
189.821256
 20
127.172438
 30
0.0
 10
192.870384
 20
124.513340
 30
0.0
 10
192.330776
 20
122.499402
 30
0.0
 10
188.360473
 20
121.721316
 30
0.0
 10
184.494311
 20
121.397324
 30
0.0
 10
183.676431
 20
118.987993
 30
0.0
 10
186.546631
 20
116.377156
 30
0.0
 10
189.222662
 20
113.342984
 30
0.0
 10
188.424820
 20
111.416818
 30
0.0
 10
184.386784
 20
111.163382
 30
0.0
 10
180.511309
 20
111.346827
 30
0.0
 10
179.386089
 20
109.064778
 30
0.0
 10
181.890811
 20
106.102009
 30
0.0
 10
184.148024
 20
102.744411
 30
0.0
 10
183.105496
 20
100.938753
 30
0.0
 10
179.069153
 20
101.214484
 30
0.0
 10
175.250687
 20
101.902260
 30
0.0
 10
173.837036
 20
99.786722
 30
0.0
 10
175.933947
 20
96.522258
 30
0.0
 10
177.733396
 20
92.898807
 30
0.0
 10
176.464242
 20
91.244702
 30
0.0
 10
172.498456
 20
92.045084
 30
0.0
 10
168.802473
 20
93.225338
 30
0.0
 10
167.124662
 20
91.312153
 30
0.0
 10
168.777356
 20
87.802156
 30
0.0
 10
170.088560
 20
83.974658
 30
0.0
 10
168.614231
 20
82.500329
 30
0.0
 10
164.786733
 20
83.811533
 30
0.0
 10
161.276736
 20
85.464227
 30
0.0
 10
159.363551
 20
83.786416
 30
0.0
 10
160.543804
 20
80.090433
 30
0.0
 10
161.344187
 20
76.124647
 30
0.0
 10
159.690082
 20
74.855493
 30
0.0
 10
156.066631
 20
76.654942
 30
0.0
 10
152.802167
 20
78.751853
 30
0.0
 10
150.686629
 20
77.338202
 30
0.0
 10
151.374404
 20
73.519736
 30
0.0
 10
151.650136
 20
69.483393
 30
0.0
 10
149.844478
 20
68.440864
 30
0.0
 10
146.486880
 20
70.698078
 30
0.0
 10
143.524111
 20
73.202800
 30
0.0
 10
141.242062
 20
72.077580
 30
0.0
 10
141.425507
 20
68.202104
 30
0.0
 10
141.172071
 20
64.164069
 30
0.0
 10
139.245904
 20
63.366227
 30
0.0
 10
136.211733
 20
66.042258
 30
0.0
 10
133.600896
 20
68.912458
 30
0.0
 10
131.191564
 20
68.094578
 30
0.0
 10
130.867573
 20
64.228416
 30
0.0
 10
130.089487
 20
60.258113
 30
0.0
 10
128.075549
 20
59.718504
 30
0.0
 10
125.416451
 20
62.767633
 30
0.0
 10
123.202982
 20
65.953922
 30
0.0
 10
120.707291
 20
65.457493
 30
0.0
 10
119.881509
 20
61.666684
 30
0.0
 10
118.591753
 20
57.832131
 30
0.0
 10
116.524758
 20
57.559787
 30
0.0
 10
114.286453
 20
60.930084
 30
0.0
 10
112.507607
 20
64.377993
 30
0.0
 10
109.968453
 20
64.211764
 30
0.0
 10
108.654991
 20
60.560938
 30
0.0
 10
106.875862
 20
56.927609
 30
0.0
 10
104.790804
 20
56.927609
 30
0.0
 10
103.011676
 20
60.560938
 30
0.0
 10
101.698213
 20
64.211764
 30
0.0
 10
99.159060
 20
64.377993
 30
0.0
 10
97.380213
 20
60.930084
 30
0.0
 10
95.141909
 20
57.559787
 30
0.0
 10
93.074913
 20
57.832131
 30
0.0
 10
91.785158
 20
61.666684
 30
0.0
 10
90.959376
 20
65.457493
 30
0.0
 10
88.463684
 20
65.953922
 30
0.0
 10
86.250216
 20
62.767633
 30
0.0
 10
83.591118
 20
59.718504
 30
0.0
 10
81.577180
 20
60.258113
 30
0.0
 10
80.799093
 20
64.228416
 30
0.0
 10
80.475102
 20
68.094578
 30
0.0
 10
78.065771
 20
68.912458
 30
0.0
 10
75.454933
 20
66.042258
 30
0.0
 10
72.420762
 20
63.366227
 30
0.0
 10
70.494596
 20
64.164069
 30
0.0
 10
70.241160
 20
68.202104
 30
0.0
 10
70.424604
 20
72.077580
 30
0.0
 10
68.142556
 20
73.202800
 30
0.0
 10
65.179787
 20
70.698078
 30
0.0
 10
61.822189
 20
68.440864
 30
0.0
 10
60.016531
 20
69.483393
 30
0.0
 10
60.292262
 20
73.519736
 30
0.0
 10
60.980038
 20
77.338202
 30
0.0
 10
58.864500
 20
78.751853
 30
0.0
 10
55.600036
 20
76.654942
 30
0.0
 10
51.976584
 20
74.855493
 30
0.0
 10
50.322480
 20
76.124647
 30
0.0
 10
51.122862
 20
80.090433
 30
0.0
 10
52.303116
 20
83.786416
 30
0.0
 10
50.389931
 20
85.464227
 30
0.0
 10
46.879933
 20
83.811533
 30
0.0
 10
43.052436
 20
82.500329
 30
0.0
 10
41.578107
 20
83.974658
 30
0.0
 10
42.889311
 20
87.802156
 30
0.0
 10
44.542004
 20
91.312153
 30
0.0
 10
42.864193
 20
93.225338
 30
0.0
 10
39.168211
 20
92.045084
 30
0.0
 10
35.202424
 20
91.244702
 30
0.0
 10
33.933271
 20
92.898807
 30
0.0
 10
35.732720
 20
96.522258
 30
0.0
 10
37.829631
 20
99.786722
 30
0.0
 10
36.415980
 20
101.902260
 30
0.0
 10
32.597513
 20
101.214484
 30
0.0
 10
28.561171
 20
100.938753
 30
0.0
 10
27.518642
 20
102.744411
 30
0.0
 10
29.775856
 20
106.102009
 30
0.0
 10
32.280578
 20
109.064778
 30
0.0
 10
31.155358
 20
111.346827
 30
0.0
 10
27.279882
 20
111.163382
 30
0.0
 10
23.241847
 20
111.416818
 30
0.0
 10
22.444004
 20
113.342984
 30
0.0
 10
25.120036
 20
116.377156
 30
0.0
 10
27.990236
 20
118.987993
 30
0.0
 10
27.172356
 20
121.397324
 30
0.0
 10
23.306193
 20
121.721316
 30
0.0
 10
19.335891
 20
122.499402
 30
0.0
 10
18.796282
 20
124.513340
 30
0.0
 10
21.845411
 20
127.172438
 30
0.0
 10
25.031700
 20
129.385907
 30
0.0
 10
24.535271
 20
131.881598
 30
0.0
 10
20.744462
 20
132.707380
 30
0.0
 10
16.909909
 20
133.997136
 30
0.0
 10
16.637564
 20
136.064131
 30
0.0
 10
20.007862
 20
138.302436
 30
0.0
 10
23.455771
 20
140.081282
 30
0.0
 10
23.289542
 20
142.620436
 30
0.0
 10
19.638716
 20
143.933898
 30
0.0
 10
16.005387
 20
145.713027
 30
0.0
 10
16.005387
 20
147.798084
 30
0.0
 10
19.638716
 20
149.577213
 30
0.0
 10
23.289542
 20
150.890676
 30
0.0
 10
23.455771
 20
153.429829
 30
0.0
 10
20.007862
 20
155.208676
 30
0.0
 10
16.637564
 20
157.446980
 30
0.0
 10
16.909909
 20
159.513976
 30
0.0
 10
20.744462
 20
160.803731
 30
0.0
 10
24.535271
 20
161.629513
 30
0.0
 10
25.031700
 20
164.125204
 30
0.0
 10
21.845411
 20
166.338673
 30
0.0
 10
18.796282
 20
168.997771
 30
0.0
 10
19.335891
 20
171.011709
 30
0.0
 10
23.306193
 20
171.789796
 30
0.0
 10
27.172356
 20
172.113787
 30
0.0
 10
27.990236
 20
174.523118
 30
0.0
 10
25.120036
 20
177.133956
 30
0.0
 10
22.444004
 20
180.168127
 30
0.0
 10
23.241847
 20
182.094293
 30
0.0
 10
27.279882
 20
182.347729
 30
0.0
 10
31.155358
 20
182.164284
 30
0.0
 10
32.280578
 20
184.446333
 30
0.0
 10
29.775856
 20
187.409102
 30
0.0
 10
27.518642
 20
190.766700
 30
0.0
 10
28.561171
 20
192.572358
 30
0.0
 10
32.597513
 20
192.296627
 30
0.0
 10
36.415980
 20
191.608851
 30
0.0
 10
37.829631
 20
193.724389
 30
0.0
 10
35.732720
 20
196.988853
 30
0.0
 10
33.933271
 20
200.612304
 30
0.0
 10
35.202424
 20
202.266409
 30
0.0
 10
39.168211
 20
201.466027
 30
0.0
 10
42.864193
 20
200.285773
 30
0.0
 10
44.542004
 20
202.198958
 30
0.0
 10
42.889311
 20
205.708956
 30
0.0
 10
41.578107
 20
209.536453
 30
0.0
 10
43.052436
 20
211.010782
 30
0.0
 10
46.879933
 20
209.699578
 30
0.0
 10
50.389931
 20
208.046884
 30
0.0
 10
52.303116
 20
209.724696
 30
0.0
 10
51.122862
 20
213.420678
 30
0.0
 10
50.322480
 20
217.386464
 30
0.0
 10
51.976584
 20
218.655618
 30
0.0
 10
55.600036
 20
216.856169
 30
0.0
 10
58.864500
 20
214.759258
 30
0.0
 10
60.980038
 20
216.172909
 30
0.0
 10
60.292262
 20
219.991376
 30
0.0
 10
60.016531
 20
224.027718
 30
0.0
 10
61.822189
 20
225.070247
 30
0.0
 10
65.179787
 20
222.813033
 30
0.0
 10
68.142556
 20
220.308311
 30
0.0
 10
70.424604
 20
221.433531
 30
0.0
 10
70.241160
 20
225.309007
 30
0.0
 10
70.494596
 20
229.347042
 30
0.0
 10
72.420762
 20
230.144884
 30
0.0
 10
75.454933
 20
227.468853
 30
0.0
 10
78.065771
 20
224.598653
 30
0.0
 10
80.475102
 20
225.416533
 30
0.0
 10
80.799093
 20
229.282696
 30
0.0
 10
81.577180
 20
233.252998
 30
0.0
 10
83.591118
 20
233.792607
 30
0.0
 10
86.250216
 20
230.743478
 30
0.0
 10
88.463684
 20
227.557189
 30
0.0
 10
90.959376
 20
228.053618
 30
0.0
 10
91.785158
 20
231.844427
 30
0.0
 10
93.074913
 20
235.678980
 30
0.0
 10
95.141909
 20
235.951324
 30
0.0
 10
97.380213
 20
232.581027
 30
0.0
 10
99.159060
 20
229.133118
 30
0.0
 10
101.698213
 20
229.299347
 30
0.0
 10
103.011676
 20
232.950173
 30
0.0
 10
104.790804
 20
236.583502
 30
0.0
 10
106.875862
 20
236.583502
 30
0.0
 10
108.654991
 20
232.950173
 30
0.0
 10
109.968453
 20
229.299347
 30
0.0
 10
112.507607
 20
229.133118
 30
0.0
 10
114.286453
 20
232.581027
 30
0.0
 10
116.524758
 20
235.951324
 30
0.0
 10
118.591753
 20
235.678980
 30
0.0
 10
119.881509
 20
231.844427
 30
0.0
 10
120.707291
 20
228.053618
 30
0.0
 10
123.202982
 20
227.557189
 30
0.0
 10
125.416451
 20
230.743478
 30
0.0
 10
128.075549
 20
233.792607
 30
0.0
 10
130.089487
 20
233.252998
 30
0.0
 10
130.867573
 20
229.282696
 30
0.0
 10
131.191564
 20
225.416533
 30
0.0
 10
133.600896
 20
224.598653
 30
0.0
 10
136.211733
 20
227.468853
 30
0.0
 10
139.245904
 20
230.144884
 30
0.0
 10
141.172071
 20
229.347042
 30
0.0
 10
141.425507
 20
225.309007
 30
0.0
 10
141.242062
 20
221.433531
 30
0.0
 10
143.524111
 20
220.308311
 30
0.0
 10
146.486880
 20
222.813033
 30
0.0
 10
149.844478
 20
225.070247
 30
0.0
 10
151.650136
 20
224.027718
 30
0.0
 10
151.374404
 20
219.991376
 30
0.0
 10
150.686629
 20
216.172909
 30
0.0
 10
152.802167
 20
214.759258
 30
0.0
 10
156.066631
 20
216.856169
 30
0.0
 10
159.690082
 20
218.655618
 30
0.0
 10
161.344187
 20
217.386464
 30
0.0
 10
160.543804
 20
213.420678
 30
0.0
 10
159.363551
 20
209.724696
 30
0.0
 10
161.276736
 20
208.046884
 30
0.0
 10
164.786733
 20
209.699578
 30
0.0
 10
168.614231
 20
211.010782
 30
0.0
 10
170.088560
 20
209.536453
 30
0.0
 10
168.777356
 20
205.708956
 30
0.0
 10
167.124662
 20
202.198958
 30
0.0
 10
168.802473
 20
200.285773
 30
0.0
 10
172.498456
 20
201.466027
 30
0.0
 10
176.464242
 20
202.266409
 30
0.0
 10
177.733396
 20
200.612304
 30
0.0
 10
175.933947
 20
196.988853
 30
0.0
 10
173.837036
 20
193.724389
 30
0.0
 10
175.250687
 20
191.608851
 30
0.0
 10
179.069153
 20
192.296627
 30
0.0
 10
183.105496
 20
192.572358
 30
0.0
 10
184.148024
 20
190.766700
 30
0.0
 10
181.890811
 20
187.409102
 30
0.0
 10
179.386089
 20
184.446333
 30
0.0
 10
180.511309
 20
182.164284
 30
0.0
 10
184.386784
 20
182.347729
 30
0.0
 10
188.424820
 20
182.094293
 30
0.0
 10
189.222662
 20
180.168127
 30
0.0
 10
186.546631
 20
177.133956
 30
0.0
 10
183.676431
 20
174.523118
 30
0.0
 10
184.494311
 20
172.113787
 30
0.0
 10
188.360473
 20
171.789796
 30
0.0
 10
192.330776
 20
171.011709
 30
0.0
 10
192.870384
 20
168.997771
 30
0.0
 10
189.821256
 20
166.338673
 30
0.0
 10
186.634967
 20
164.125204
 30
0.0
 10
187.131396
 20
161.629513
 30
0.0
 10
190.922204
 20
160.803731
 30
0.0
 10
194.756758
 20
159.513976
 30
0.0
 10
195.029102
 20
157.446980
 30
0.0
 10
191.658804
 20
155.208676
 30
0.0
 10
188.210896
 20
153.429829
 30
0.0
 10
188.377124
 20
150.890676
 30
0.0
  0
ENDSEC
  0
SECTION
  2
OBJECTS
  0
DICTIONARY
  5
C
330
0
100
AcDbDictionary
  3
ACAD_GROUP
350
D
  3
ACAD_MLINESTYLE
350
17
  0
DICTIONARY
  5
D
330
C
100
AcDbDictionary
  0
DICTIONARY
  5
1A
330
C
100
AcDbDictionary
  0
DICTIONARY
  5
17
330
C
100
AcDbDictionary
  3
STANDARD
350
18
  0
DICTIONARY
  5
19
330
C
100
AcDbDictionary
  0
ENDSEC
  0
EOF
