  0
SECTION
  2
HEADER
  9
$ACADVER
  1
AC1014
  9
$HANDSEED
  5
FFFF
  9
$MEASUREMENT
 70
     1
  0
ENDSEC
  0
SECTION
  2
TABLES
  0
TABLE
  2
VPORT
  5
8
330
0
100
AcDbSymbolTable
 70
     4
  0
VPORT
  5
2E
330
8
100
AcDbSymbolTableRecord
100
AcDbViewportTableRecord
  2
*ACTIVE
 70
     0
 10
0.0
 20
0.0
 11
1.0
 21
1.0
 12
210.0
 22
148.5
 13
0.0
 23
0.0
 14
10.0
 24
10.0
 15
10.0
 25
10.0
 16
0.0
 26
0.0
 36
1.0
 17
0.0
 27
0.0
 37
0.0
 40
341.0
 41
1.24
 42
50.0
 43
0.0
 44
0.0
 50
0.0
 51
0.0
 71
     0
 72
   100
 73
     1
 74
     3
 75
     0
 76
     0
 77
     0
 78
     0
  0
ENDTAB
  0
TABLE
  2
LTYPE
  5
5
330
0
100
AcDbSymbolTable
 70
     1
  0
LTYPE
  5
14
330
5
100
AcDbSymbolTableRecord
100
AcDbLinetypeTableRecord
  2
BYBLOCK
 70
     0
  3

 72
    65
 73
     0
 40
0.0
  0
LTYPE
  5
15
330
5
100
AcDbSymbolTableRecord
100
AcDbLinetypeTableRecord
  2
BYLAYER
 70
     0
  3

 72
    65
 73
     0
 40
0.0
  0
LTYPE
  5
16
330
5
100
AcDbSymbolTableRecord
100
AcDbLinetypeTableRecord
  2
CONTINUOUS
 70
     0
  3
Solid line
 72
    65
 73
     0
 40
0.0
  0
ENDTAB
  0
TABLE
  2
LAYER
  5
2
100
AcDbSymbolTable
 70
2
  0
LAYER
  5
50
100
AcDbSymbolTableRecord
100
AcDbLayerTableRecord
  2
0
 70
0
  6
CONTINUOUS
  0
LAYER
  5
51
100
AcDbSymbolTableRecord
100
AcDbLayerTableRecord
  2
Layer_1
 70
0
  6
CONTINUOUS
  0
ENDTAB
  0
TABLE
  2
STYLE
  5
3
330
0
100
AcDbSymbolTable
 70
     1
  0
STYLE
  5
11
330
3
100
AcDbSymbolTableRecord
100
AcDbTextStyleTableRecord
  2
STANDARD
 70
     0
 40
0.0
 41
1.0
 50
0.0
 71
     0
 42
2.5
  3
txt
  4

  0
ENDTAB
  0
TABLE
  2
VIEW
  5
6
330
0
100
AcDbSymbolTable
 70
     0
  0
ENDTAB
  0
TABLE
  2
UCS
  5
7
330
0
100
AcDbSymbolTable
 70
     0
  0
ENDTAB
  0
TABLE
  2
APPID
  5
9
330
0
100
AcDbSymbolTable
 70
     2
  0
APPID
  5
12
330
9
100
AcDbSymbolTableRecord
100
AcDbRegAppTableRecord
  2
ACAD
 70
     0
  0
ENDTAB
  0
TABLE
  2
DIMSTYLE
  5
A
330
0
100
AcDbSymbolTable
 70
     1
  0
DIMSTYLE
105
27
330
A
100
AcDbSymbolTableRecord
100
AcDbDimStyleTableRecord
  2
ISO-25
 70
     0
  3

  4

  5

  6

  7

 40
1.0
 41
2.5
 42
0.625
 43
3.75
 44
1.25
 45
0.0
 46
0.0
 47
0.0
 48
0.0
140
2.5
141
2.5
142
0.0
143
0.03937007874016
144
1.0
145
0.0
146
1.0
147
0.625
 71
     0
 72
     0
 73
     0
 74
     0
 75
     0
 76
     0
 77
     1
 78
     8
170
     0
171
     3
172
     1
173
     0
174
     0
175
     0
176
     0
177
     0
178
     0
270
     2
271
     2
272
     2
273
     2
274
     3
340
11
275
     0
280
     0
281
     0
282
     0
283
     0
284
     8
285
     0
286
     0
287
     3
288
     0
  0
ENDTAB
  0
TABLE
  2
BLOCK_RECORD
  5
1
330
0
100
AcDbSymbolTable
 70
     1
  0
BLOCK_RECORD
  5
1F
330
1
100
AcDbSymbolTableRecord
100
AcDbBlockTableRecord
  2
*MODEL_SPACE
  0
BLOCK_RECORD
  5
1B
330
1
100
AcDbSymbolTableRecord
100
AcDbBlockTableRecord
  2
*PAPER_SPACE
  0
ENDTAB
  0
ENDSEC
  0
SECTION
  2
BLOCKS
  0
BLOCK
  5
20
330
1F
100
AcDbEntity
  8
0
100
AcDbBlockBegin
  2
*MODEL_SPACE
 70
     0
 10
0.0
 20
0.0
 30
0.0
  3
*MODEL_SPACE
  1

  0
ENDBLK
  5
21
330
1F
100
AcDbEntity
  8
0
100
AcDbBlockEnd
  0
BLOCK
  5
1C
330
1B
100
AcDbEntity
 67
     1
  8
0
100
AcDbBlockBegin
  2
*PAPER_SPACE
  1

  0
ENDBLK
  5
1D
330
1B
100
AcDbEntity
 67
     1
  8
0
100
AcDbBlockEnd
  0
ENDSEC
  0
SECTION
  2
ENTITIES
  0
LWPOLYLINE
  5
100
100
AcDbEntity
  8
Layer_1
 62
7
100
AcDbPolyline
 90
145
 70
0
 10
136.323011
 20
87.360276
 30
0.0
 10
137.442022
 20
87.492074
 30
0.0
 10
143.658249
 20
86.272309
 30
0.0
 10
151.068840
 20
82.424491
 30
0.0
 10
151.068840
 20
78.845349
 30
0.0
 10
143.658249
 20
74.997531
 30
0.0
 10
137.442022
 20
73.777767
 30
0.0
 10
136.323011
 20
73.909565
 30
0.0
 10
135.179729
 20
67.425509
 30
0.0
 10
136.276162
 20
67.166711
 30
0.0
 10
141.700473
 20
63.894345
 30
0.0
 10
147.348022
 20
57.744158
 30
0.0
 10
146.124024
 20
54.380916
 30
0.0
 10
137.844189
 20
53.299723
 30
0.0
 10
131.585629
 20
54.279598
 30
0.0
 10
130.579224
 20
54.786187
 30
0.0
 10
127.287102
 20
49.084169
 30
0.0
 10
128.229160
 20
48.465820
 30
0.0
 10
132.207082
 20
43.535680
 30
0.0
 10
135.410586
 20
35.824805
 30
0.0
 10
133.109911
 20
33.083016
 30
0.0
 10
124.959897
 20
34.898834
 30
0.0
 10
119.413949
 20
37.960380
 30
0.0
 10
118.641506
 20
38.780518
 30
0.0
 10
113.597631
 20
34.548314
 30
0.0
 10
114.271295
 20
33.645203
 30
0.0
 10
116.323051
 20
27.651649
 30
0.0
 10
116.696149
 20
19.310007
 30
0.0
 10
113.596502
 20
17.520436
 30
0.0
 10
106.559009
 20
22.014543
 30
0.0
 10
102.394537
 20
26.788049
 30
0.0
 10
101.949191
 20
27.822958
 30
0.0
 10
95.762033
 20
25.571107
 30
0.0
 10
96.086024
 20
24.491889
 30
0.0
 10
95.964386
 20
18.158258
 30
0.0
 10
93.461922
 20
10.192254
 30
0.0
 10
89.937249
 20
9.570518
 30
0.0
 10
84.861200
 20
16.200483
 30
0.0
 10
82.580280
 20
22.110498
 30
0.0
 10
82.515933
 20
23.235436
 30
0.0
 10
75.931689
 20
23.235436
 30
0.0
 10
75.867342
 20
22.110498
 30
0.0
 10
73.586422
 20
16.200483
 30
0.0
 10
68.510373
 20
9.570518
 30
0.0
 10
64.985700
 20
10.192254
 30
0.0
 10
62.483235
 20
18.158258
 30
0.0
 10
62.361597
 20
24.491889
 30
0.0
 10
62.685589
 20
25.571107
 30
0.0
 10
56.498431
 20
27.822958
 30
0.0
 10
56.053084
 20
26.788049
 30
0.0
 10
51.888613
 20
22.014543
 30
0.0
 10
44.851120
 20
17.520436
 30
0.0
 10
41.751473
 20
19.310007
 30
0.0
 10
42.124571
 20
27.651649
 30
0.0
 10
44.176326
 20
33.645203
 30
0.0
 10
44.849991
 20
34.548314
 30
0.0
 10
39.806115
 20
38.780518
 30
0.0
 10
39.033673
 20
37.960380
 30
0.0
 10
33.487724
 20
34.898834
 30
0.0
 10
25.337711
 20
33.083016
 30
0.0
 10
23.037035
 20
35.824805
 30
0.0
 10
26.240540
 20
43.535680
 30
0.0
 10
30.218462
 20
48.465820
 30
0.0
 10
31.160520
 20
49.084169
 30
0.0
 10
27.868397
 20
54.786187
 30
0.0
 10
26.861993
 20
54.279598
 30
0.0
 10
20.603433
 20
53.299723
 30
0.0
 10
12.323597
 20
54.380916
 30
0.0
 10
11.099600
 20
57.744158
 30
0.0
 10
16.747149
 20
63.894345
 30
0.0
 10
22.171460
 20
67.166711
 30
0.0
 10
23.267893
 20
67.425509
 30
0.0
 10
22.124611
 20
73.909565
 30
0.0
 10
21.005600
 20
73.777767
 30
0.0
 10
14.789373
 20
74.997531
 30
0.0
 10
7.378782
 20
78.845349
 30
0.0
 10
7.378782
 20
82.424491
 30
0.0
 10
14.789373
 20
86.272309
 30
0.0
 10
21.005600
 20
87.492074
 30
0.0
 10
22.124611
 20
87.360276
 30
0.0
 10
23.267893
 20
93.844331
 30
0.0
 10
22.171460
 20
94.103129
 30
0.0
 10
16.747149
 20
97.375496
 30
0.0
 10
11.099600
 20
103.525683
 30
0.0
 10
12.323597
 20
106.888925
 30
0.0
 10
20.603433
 20
107.970118
 30
0.0
 10
26.861993
 20
106.990243
 30
0.0
 10
27.868397
 20
106.483654
 30
0.0
 10
31.160520
 20
112.185671
 30
0.0
 10
30.218462
 20
112.804020
 30
0.0
 10
26.240540
 20
117.734160
 30
0.0
 10
23.037035
 20
125.445036
 30
0.0
 10
25.337711
 20
128.186825
 30
0.0
 10
33.487724
 20
126.371007
 30
0.0
 10
39.033673
 20
123.309460
 30
0.0
 10
39.806115
 20
122.489323
 30
0.0
 10
44.849991
 20
126.721527
 30
0.0
 10
44.176326
 20
127.624638
 30
0.0
 10
42.124571
 20
133.618191
 30
0.0
 10
41.751473
 20
141.959834
 30
0.0
 10
44.851120
 20
143.749405
 30
0.0
 10
51.888613
 20
139.255298
 30
0.0
 10
56.053084
 20
134.481791
 30
0.0
 10
56.498431
 20
133.446883
 30
0.0
 10
62.685589
 20
135.698734
 30
0.0
 10
62.361597
 20
136.777951
 30
0.0
 10
62.483235
 20
143.111583
 30
0.0
 10
64.985700
 20
151.077587
 30
0.0
 10
68.510373
 20
151.699323
 30
0.0
 10
73.586422
 20
145.069358
 30
0.0
 10
75.867342
 20
139.159343
 30
0.0
 10
75.931689
 20
138.034405
 30
0.0
 10
82.515933
 20
138.034405
 30
0.0
 10
82.580280
 20
139.159343
 30
0.0
 10
84.861200
 20
145.069358
 30
0.0
 10
89.937249
 20
151.699323
 30
0.0
 10
93.461922
 20
151.077587
 30
0.0
 10
95.964386
 20
143.111583
 30
0.0
 10
96.086024
 20
136.777951
 30
0.0
 10
95.762033
 20
135.698734
 30
0.0
 10
101.949191
 20
133.446883
 30
0.0
 10
102.394537
 20
134.481791
 30
0.0
 10
106.559009
 20
139.255298
 30
0.0
 10
113.596502
 20
143.749405
 30
0.0
 10
116.696149
 20
141.959834
 30
0.0
 10
116.323051
 20
133.618191
 30
0.0
 10
114.271295
 20
127.624638
 30
0.0
 10
113.597631
 20
126.721527
 30
0.0
 10
118.641506
 20
122.489323
 30
0.0
 10
119.413949
 20
123.309460
 30
0.0
 10
124.959897
 20
126.371007
 30
0.0
 10
133.109911
 20
128.186825
 30
0.0
 10
135.410586
 20
125.445036
 30
0.0
 10
132.207082
 20
117.734160
 30
0.0
 10
128.229160
 20
112.804020
 30
0.0
 10
127.287102
 20
112.185671
 30
0.0
 10
130.579224
 20
106.483654
 30
0.0
 10
131.585629
 20
106.990243
 30
0.0
 10
137.844189
 20
107.970118
 30
0.0
 10
146.124024
 20
106.888925
 30
0.0
 10
147.348022
 20
103.525683
 30
0.0
 10
141.700473
 20
97.375496
 30
0.0
 10
136.276162
 20
94.103129
 30
0.0
 10
135.179729
 20
93.844331
 30
0.0
 10
136.323011
 20
87.360276
 30
0.0
  0
ENDSEC
  0
SECTION
  2
OBJECTS
  0
DICTIONARY
  5
C
330
0
100
AcDbDictionary
  3
ACAD_GROUP
350
D
  3
ACAD_MLINESTYLE
350
17
  0
DICTIONARY
  5
D
330
C
100
AcDbDictionary
  0
DICTIONARY
  5
1A
330
C
100
AcDbDictionary
  0
DICTIONARY
  5
17
330
C
100
AcDbDictionary
  3
STANDARD
350
18
  0
DICTIONARY
  5
19
330
C
100
AcDbDictionary
  0
ENDSEC
  0
EOF
