  0
SECTION
  2
HEADER
  9
$ACADVER
  1
AC1014
  9
$HANDSEED
  5
FFFF
  9
$MEASUREMENT
 70
     1
  0
ENDSEC
  0
SECTION
  2
TABLES
  0
TABLE
  2
VPORT
  5
8
330
0
100
AcDbSymbolTable
 70
     4
  0
VPORT
  5
2E
330
8
100
AcDbSymbolTableRecord
100
AcDbViewportTableRecord
  2
*ACTIVE
 70
     0
 10
0.0
 20
0.0
 11
1.0
 21
1.0
 12
210.0
 22
148.5
 13
0.0
 23
0.0
 14
10.0
 24
10.0
 15
10.0
 25
10.0
 16
0.0
 26
0.0
 36
1.0
 17
0.0
 27
0.0
 37
0.0
 40
341.0
 41
1.24
 42
50.0
 43
0.0
 44
0.0
 50
0.0
 51
0.0
 71
     0
 72
   100
 73
     1
 74
     3
 75
     0
 76
     0
 77
     0
 78
     0
  0
ENDTAB
  0
TABLE
  2
LTYPE
  5
5
330
0
100
AcDbSymbolTable
 70
     1
  0
LTYPE
  5
14
330
5
100
AcDbSymbolTableRecord
100
AcDbLinetypeTableRecord
  2
BYBLOCK
 70
     0
  3

 72
    65
 73
     0
 40
0.0
  0
LTYPE
  5
15
330
5
100
AcDbSymbolTableRecord
100
AcDbLinetypeTableRecord
  2
BYLAYER
 70
     0
  3

 72
    65
 73
     0
 40
0.0
  0
LTYPE
  5
16
330
5
100
AcDbSymbolTableRecord
100
AcDbLinetypeTableRecord
  2
CONTINUOUS
 70
     0
  3
Solid line
 72
    65
 73
     0
 40
0.0
  0
ENDTAB
  0
TABLE
  2
LAYER
  5
2
100
AcDbSymbolTable
 70
2
  0
LAYER
  5
50
100
AcDbSymbolTableRecord
100
AcDbLayerTableRecord
  2
0
 70
0
  6
CONTINUOUS
  0
LAYER
  5
51
100
AcDbSymbolTableRecord
100
AcDbLayerTableRecord
  2
Layer_1
 70
0
  6
CONTINUOUS
  0
ENDTAB
  0
TABLE
  2
STYLE
  5
3
330
0
100
AcDbSymbolTable
 70
     1
  0
STYLE
  5
11
330
3
100
AcDbSymbolTableRecord
100
AcDbTextStyleTableRecord
  2
STANDARD
 70
     0
 40
0.0
 41
1.0
 50
0.0
 71
     0
 42
2.5
  3
txt
  4

  0
ENDTAB
  0
TABLE
  2
VIEW
  5
6
330
0
100
AcDbSymbolTable
 70
     0
  0
ENDTAB
  0
TABLE
  2
UCS
  5
7
330
0
100
AcDbSymbolTable
 70
     0
  0
ENDTAB
  0
TABLE
  2
APPID
  5
9
330
0
100
AcDbSymbolTable
 70
     2
  0
APPID
  5
12
330
9
100
AcDbSymbolTableRecord
100
AcDbRegAppTableRecord
  2
ACAD
 70
     0
  0
ENDTAB
  0
TABLE
  2
DIMSTYLE
  5
A
330
0
100
AcDbSymbolTable
 70
     1
  0
DIMSTYLE
105
27
330
A
100
AcDbSymbolTableRecord
100
AcDbDimStyleTableRecord
  2
ISO-25
 70
     0
  3

  4

  5

  6

  7

 40
1.0
 41
2.5
 42
0.625
 43
3.75
 44
1.25
 45
0.0
 46
0.0
 47
0.0
 48
0.0
140
2.5
141
2.5
142
0.0
143
0.03937007874016
144
1.0
145
0.0
146
1.0
147
0.625
 71
     0
 72
     0
 73
     0
 74
     0
 75
     0
 76
     0
 77
     1
 78
     8
170
     0
171
     3
172
     1
173
     0
174
     0
175
     0
176
     0
177
     0
178
     0
270
     2
271
     2
272
     2
273
     2
274
     3
340
11
275
     0
280
     0
281
     0
282
     0
283
     0
284
     8
285
     0
286
     0
287
     3
288
     0
  0
ENDTAB
  0
TABLE
  2
BLOCK_RECORD
  5
1
330
0
100
AcDbSymbolTable
 70
     1
  0
BLOCK_RECORD
  5
1F
330
1
100
AcDbSymbolTableRecord
100
AcDbBlockTableRecord
  2
*MODEL_SPACE
  0
BLOCK_RECORD
  5
1B
330
1
100
AcDbSymbolTableRecord
100
AcDbBlockTableRecord
  2
*PAPER_SPACE
  0
ENDTAB
  0
ENDSEC
  0
SECTION
  2
BLOCKS
  0
BLOCK
  5
20
330
1F
100
AcDbEntity
  8
0
100
AcDbBlockBegin
  2
*MODEL_SPACE
 70
     0
 10
0.0
 20
0.0
 30
0.0
  3
*MODEL_SPACE
  1

  0
ENDBLK
  5
21
330
1F
100
AcDbEntity
  8
0
100
AcDbBlockEnd
  0
BLOCK
  5
1C
330
1B
100
AcDbEntity
 67
     1
  8
0
100
AcDbBlockBegin
  2
*PAPER_SPACE
  1

  0
ENDBLK
  5
1D
330
1B
100
AcDbEntity
 67
     1
  8
0
100
AcDbBlockEnd
  0
ENDSEC
  0
SECTION
  2
ENTITIES
  0
LWPOLYLINE
  5
100
100
AcDbEntity
  8
Layer_1
 62
7
100
AcDbPolyline
 90
145
 70
0
 10
68.652274
 20
41.608591
 30
0.0
 10
69.211639
 20
41.674349
 30
0.0
 10
72.320034
 20
41.064466
 30
0.0
 10
76.025048
 20
39.140557
 30
0.0
 10
76.025048
 20
37.351269
 30
0.0
 10
72.320034
 20
35.427360
 30
0.0
 10
69.211639
 20
34.817477
 30
0.0
 10
68.652274
 20
34.883235
 30
0.0
 10
68.080492
 20
31.641349
 30
0.0
 10
68.628850
 20
31.511809
 30
0.0
 10
71.341005
 20
29.875766
 30
0.0
 10
74.164921
 20
26.800391
 30
0.0
 10
73.552781
 20
25.118911
 30
0.0
 10
69.412863
 20
24.578455
 30
0.0
 10
66.283583
 20
25.068393
 30
0.0
 10
65.780381
 20
25.321546
 30
0.0
 10
64.134461
 20
22.470537
 30
0.0
 10
64.605208
 20
22.161504
 30
0.0
 10
66.594310
 20
19.696293
 30
0.0
 10
68.196203
 20
15.840855
 30
0.0
 10
67.045865
 20
14.469820
 30
0.0
 10
62.970577
 20
15.378011
 30
0.0
 10
60.197743
 20
16.908502
 30
0.0
 10
59.811381
 20
17.318571
 30
0.0
 10
57.289443
 20
15.202469
 30
0.0
 10
57.626417
 20
14.750913
 30
0.0
 10
58.652294
 20
11.754277
 30
0.0
 10
58.838843
 20
7.583597
 30
0.0
 10
57.289161
 20
6.688671
 30
0.0
 10
53.770132
 20
8.935724
 30
0.0
 10
51.687897
 20
11.322477
 30
0.0
 10
51.465223
 20
11.840073
 30
0.0
 10
48.371785
 20
10.714006
 30
0.0
 10
48.533781
 20
10.174397
 30
0.0
 10
48.472821
 20
7.007582
 30
0.0
 10
47.221730
 20
3.024580
 30
0.0
 10
45.459252
 20
2.713853
 30
0.0
 10
42.921228
 20
6.028553
 30
0.0
 10
41.781050
 20
8.983702
 30
0.0
 10
41.748594
 20
9.546171
 30
0.0
 10
38.456754
 20
9.546171
 30
0.0
 10
38.424299
 20
8.983702
 30
0.0
 10
37.284121
 20
6.028553
 30
0.0
 10
34.746097
 20
2.713853
 30
0.0
 10
32.983619
 20
3.024580
 30
0.0
 10
31.732528
 20
7.007582
 30
0.0
 10
31.671568
 20
10.174397
 30
0.0
 10
31.833563
 20
10.714006
 30
0.0
 10
28.740125
 20
11.840073
 30
0.0
 10
28.517452
 20
11.322477
 30
0.0
 10
26.435217
 20
8.935724
 30
0.0
 10
22.916188
 20
6.688671
 30
0.0
 10
21.366505
 20
7.583597
 30
0.0
 10
21.553054
 20
11.754277
 30
0.0
 10
22.578932
 20
14.750913
 30
0.0
 10
22.915905
 20
15.202469
 30
0.0
 10
20.393968
 20
17.318571
 30
0.0
 10
20.007605
 20
16.908502
 30
0.0
 10
17.234772
 20
15.378011
 30
0.0
 10
13.159483
 20
14.469820
 30
0.0
 10
12.009145
 20
15.840855
 30
0.0
 10
13.611039
 20
19.696293
 30
0.0
 10
15.600141
 20
22.161504
 30
0.0
 10
16.070888
 20
22.470537
 30
0.0
 10
14.424968
 20
25.321546
 30
0.0
 10
13.921765
 20
25.068393
 30
0.0
 10
10.792485
 20
24.578455
 30
0.0
 10
6.652568
 20
25.118911
 30
0.0
 10
6.040428
 20
26.800391
 30
0.0
 10
8.864343
 20
29.875766
 30
0.0
 10
11.576499
 20
31.511809
 30
0.0
 10
12.124857
 20
31.641349
 30
0.0
 10
11.553074
 20
34.883235
 30
0.0
 10
10.993710
 20
34.817477
 30
0.0
 10
7.885314
 20
35.427360
 30
0.0
 10
4.180301
 20
37.351269
 30
0.0
 10
4.180301
 20
39.140557
 30
0.0
 10
7.885314
 20
41.064466
 30
0.0
 10
10.993710
 20
41.674349
 30
0.0
 10
11.553074
 20
41.608591
 30
0.0
 10
12.124857
 20
44.850477
 30
0.0
 10
11.576499
 20
44.980017
 30
0.0
 10
8.864343
 20
46.616060
 30
0.0
 10
6.040428
 20
49.691435
 30
0.0
 10
6.652568
 20
51.372915
 30
0.0
 10
10.792485
 20
51.913371
 30
0.0
 10
13.921765
 20
51.423433
 30
0.0
 10
14.424968
 20
51.170280
 30
0.0
 10
16.070888
 20
54.021289
 30
0.0
 10
15.600141
 20
54.330322
 30
0.0
 10
13.611039
 20
56.795533
 30
0.0
 10
12.009145
 20
60.650971
 30
0.0
 10
13.159483
 20
62.022006
 30
0.0
 10
17.234772
 20
61.113815
 30
0.0
 10
20.007605
 20
59.583324
 30
0.0
 10
20.393968
 20
59.173255
 30
0.0
 10
22.915905
 20
61.289357
 30
0.0
 10
22.578932
 20
61.740913
 30
0.0
 10
21.553054
 20
64.737549
 30
0.0
 10
21.366505
 20
68.908229
 30
0.0
 10
22.916188
 20
69.803155
 30
0.0
 10
26.435217
 20
67.556102
 30
0.0
 10
28.517452
 20
65.169349
 30
0.0
 10
28.740125
 20
64.651753
 30
0.0
 10
31.833563
 20
65.777820
 30
0.0
 10
31.671568
 20
66.317429
 30
0.0
 10
31.732528
 20
69.484244
 30
0.0
 10
32.983619
 20
73.467246
 30
0.0
 10
34.746097
 20
73.777973
 30
0.0
 10
37.284121
 20
70.463273
 30
0.0
 10
38.424299
 20
67.508124
 30
0.0
 10
38.456754
 20
66.945655
 30
0.0
 10
41.748594
 20
66.945655
 30
0.0
 10
41.781050
 20
67.508124
 30
0.0
 10
42.921228
 20
70.463273
 30
0.0
 10
45.459252
 20
73.777973
 30
0.0
 10
47.221730
 20
73.467246
 30
0.0
 10
48.472821
 20
69.484244
 30
0.0
 10
48.533781
 20
66.317429
 30
0.0
 10
48.371785
 20
65.777820
 30
0.0
 10
51.465223
 20
64.651753
 30
0.0
 10
51.687897
 20
65.169349
 30
0.0
 10
53.770132
 20
67.556102
 30
0.0
 10
57.289161
 20
69.803155
 30
0.0
 10
58.838843
 20
68.908229
 30
0.0
 10
58.652294
 20
64.737549
 30
0.0
 10
57.626417
 20
61.740913
 30
0.0
 10
57.289443
 20
61.289357
 30
0.0
 10
59.811381
 20
59.173255
 30
0.0
 10
60.197743
 20
59.583324
 30
0.0
 10
62.970577
 20
61.113815
 30
0.0
 10
67.045865
 20
62.022006
 30
0.0
 10
68.196203
 20
60.650971
 30
0.0
 10
66.594310
 20
56.795533
 30
0.0
 10
64.605208
 20
54.330322
 30
0.0
 10
64.134461
 20
54.021289
 30
0.0
 10
65.780381
 20
51.170280
 30
0.0
 10
66.283583
 20
51.423433
 30
0.0
 10
69.412863
 20
51.913371
 30
0.0
 10
73.552781
 20
51.372915
 30
0.0
 10
74.164921
 20
49.691435
 30
0.0
 10
71.341005
 20
46.616060
 30
0.0
 10
68.628850
 20
44.980017
 30
0.0
 10
68.080492
 20
44.850477
 30
0.0
 10
68.652274
 20
41.608591
 30
0.0
  0
ENDSEC
  0
SECTION
  2
OBJECTS
  0
DICTIONARY
  5
C
330
0
100
AcDbDictionary
  3
ACAD_GROUP
350
D
  3
ACAD_MLINESTYLE
350
17
  0
DICTIONARY
  5
D
330
C
100
AcDbDictionary
  0
DICTIONARY
  5
1A
330
C
100
AcDbDictionary
  0
DICTIONARY
  5
17
330
C
100
AcDbDictionary
  3
STANDARD
350
18
  0
DICTIONARY
  5
19
330
C
100
AcDbDictionary
  0
ENDSEC
  0
EOF
