  0
SECTION
  2
HEADER
  9
$ACADVER
  1
AC1014
  9
$HANDSEED
  5
FFFF
  9
$MEASUREMENT
 70
     1
  0
ENDSEC
  0
SECTION
  2
TABLES
  0
TABLE
  2
VPORT
  5
8
330
0
100
AcDbSymbolTable
 70
     4
  0
VPORT
  5
2E
330
8
100
AcDbSymbolTableRecord
100
AcDbViewportTableRecord
  2
*ACTIVE
 70
     0
 10
0.0
 20
0.0
 11
1.0
 21
1.0
 12
210.0
 22
148.5
 13
0.0
 23
0.0
 14
10.0
 24
10.0
 15
10.0
 25
10.0
 16
0.0
 26
0.0
 36
1.0
 17
0.0
 27
0.0
 37
0.0
 40
341.0
 41
1.24
 42
50.0
 43
0.0
 44
0.0
 50
0.0
 51
0.0
 71
     0
 72
   100
 73
     1
 74
     3
 75
     0
 76
     0
 77
     0
 78
     0
  0
ENDTAB
  0
TABLE
  2
LTYPE
  5
5
330
0
100
AcDbSymbolTable
 70
     1
  0
LTYPE
  5
14
330
5
100
AcDbSymbolTableRecord
100
AcDbLinetypeTableRecord
  2
BYBLOCK
 70
     0
  3

 72
    65
 73
     0
 40
0.0
  0
LTYPE
  5
15
330
5
100
AcDbSymbolTableRecord
100
AcDbLinetypeTableRecord
  2
BYLAYER
 70
     0
  3

 72
    65
 73
     0
 40
0.0
  0
LTYPE
  5
16
330
5
100
AcDbSymbolTableRecord
100
AcDbLinetypeTableRecord
  2
CONTINUOUS
 70
     0
  3
Solid line
 72
    65
 73
     0
 40
0.0
  0
ENDTAB
  0
TABLE
  2
LAYER
  5
2
100
AcDbSymbolTable
 70
2
  0
LAYER
  5
50
100
AcDbSymbolTableRecord
100
AcDbLayerTableRecord
  2
0
 70
0
  6
CONTINUOUS
  0
LAYER
  5
51
100
AcDbSymbolTableRecord
100
AcDbLayerTableRecord
  2
Layer_1
 70
0
  6
CONTINUOUS
  0
ENDTAB
  0
TABLE
  2
STYLE
  5
3
330
0
100
AcDbSymbolTable
 70
     1
  0
STYLE
  5
11
330
3
100
AcDbSymbolTableRecord
100
AcDbTextStyleTableRecord
  2
STANDARD
 70
     0
 40
0.0
 41
1.0
 50
0.0
 71
     0
 42
2.5
  3
txt
  4

  0
ENDTAB
  0
TABLE
  2
VIEW
  5
6
330
0
100
AcDbSymbolTable
 70
     0
  0
ENDTAB
  0
TABLE
  2
UCS
  5
7
330
0
100
AcDbSymbolTable
 70
     0
  0
ENDTAB
  0
TABLE
  2
APPID
  5
9
330
0
100
AcDbSymbolTable
 70
     2
  0
APPID
  5
12
330
9
100
AcDbSymbolTableRecord
100
AcDbRegAppTableRecord
  2
ACAD
 70
     0
  0
ENDTAB
  0
TABLE
  2
DIMSTYLE
  5
A
330
0
100
AcDbSymbolTable
 70
     1
  0
DIMSTYLE
105
27
330
A
100
AcDbSymbolTableRecord
100
AcDbDimStyleTableRecord
  2
ISO-25
 70
     0
  3

  4

  5

  6

  7

 40
1.0
 41
2.5
 42
0.625
 43
3.75
 44
1.25
 45
0.0
 46
0.0
 47
0.0
 48
0.0
140
2.5
141
2.5
142
0.0
143
0.03937007874016
144
1.0
145
0.0
146
1.0
147
0.625
 71
     0
 72
     0
 73
     0
 74
     0
 75
     0
 76
     0
 77
     1
 78
     8
170
     0
171
     3
172
     1
173
     0
174
     0
175
     0
176
     0
177
     0
178
     0
270
     2
271
     2
272
     2
273
     2
274
     3
340
11
275
     0
280
     0
281
     0
282
     0
283
     0
284
     8
285
     0
286
     0
287
     3
288
     0
  0
ENDTAB
  0
TABLE
  2
BLOCK_RECORD
  5
1
330
0
100
AcDbSymbolTable
 70
     1
  0
BLOCK_RECORD
  5
1F
330
1
100
AcDbSymbolTableRecord
100
AcDbBlockTableRecord
  2
*MODEL_SPACE
  0
BLOCK_RECORD
  5
1B
330
1
100
AcDbSymbolTableRecord
100
AcDbBlockTableRecord
  2
*PAPER_SPACE
  0
ENDTAB
  0
ENDSEC
  0
SECTION
  2
BLOCKS
  0
BLOCK
  5
20
330
1F
100
AcDbEntity
  8
0
100
AcDbBlockBegin
  2
*MODEL_SPACE
 70
     0
 10
0.0
 20
0.0
 30
0.0
  3
*MODEL_SPACE
  1

  0
ENDBLK
  5
21
330
1F
100
AcDbEntity
  8
0
100
AcDbBlockEnd
  0
BLOCK
  5
1C
330
1B
100
AcDbEntity
 67
     1
  8
0
100
AcDbBlockBegin
  2
*PAPER_SPACE
  1

  0
ENDBLK
  5
1D
330
1B
100
AcDbEntity
 67
     1
  8
0
100
AcDbBlockEnd
  0
ENDSEC
  0
SECTION
  2
ENTITIES
  0
LWPOLYLINE
  5
100
100
AcDbEntity
  8
Layer_1
 62
7
100
AcDbPolyline
 90
289
 70
0
 10
188.320053
 20
111.027093
 30
0.0
 10
191.970880
 20
109.713631
 30
0.0
 10
195.604209
 20
107.934502
 30
0.0
 10
195.604209
 20
105.849444
 30
0.0
 10
191.970880
 20
104.070315
 30
0.0
 10
188.320053
 20
102.756853
 30
0.0
 10
188.153825
 20
100.217699
 30
0.0
 10
191.601733
 20
98.438853
 30
0.0
 10
194.972031
 20
96.200548
 30
0.0
 10
194.699687
 20
94.133553
 30
0.0
 10
190.865133
 20
92.843797
 30
0.0
 10
187.074325
 20
92.018015
 30
0.0
 10
186.577896
 20
89.522324
 30
0.0
 10
189.764185
 20
87.308855
 30
0.0
 10
192.813313
 20
84.649757
 30
0.0
 10
192.273705
 20
82.635819
 30
0.0
 10
188.303402
 20
81.857733
 30
0.0
 10
184.437240
 20
81.533742
 30
0.0
 10
183.619360
 20
79.124411
 30
0.0
 10
186.489560
 20
76.513573
 30
0.0
 10
189.165591
 20
73.479402
 30
0.0
 10
188.367749
 20
71.553235
 30
0.0
 10
184.329713
 20
71.299799
 30
0.0
 10
180.454238
 20
71.483244
 30
0.0
 10
179.329018
 20
69.201195
 30
0.0
 10
181.833740
 20
66.238426
 30
0.0
 10
184.090953
 20
62.880828
 30
0.0
 10
183.048425
 20
61.075171
 30
0.0
 10
179.012082
 20
61.350902
 30
0.0
 10
175.193616
 20
62.038677
 30
0.0
 10
173.779965
 20
59.923139
 30
0.0
 10
175.876876
 20
56.658675
 30
0.0
 10
177.676325
 20
53.035224
 30
0.0
 10
176.407171
 20
51.381119
 30
0.0
 10
172.441385
 20
52.181502
 30
0.0
 10
168.745402
 20
53.361755
 30
0.0
 10
167.067591
 20
51.448571
 30
0.0
 10
168.720285
 20
47.938573
 30
0.0
 10
170.031489
 20
44.111075
 30
0.0
 10
168.557160
 20
42.636746
 30
0.0
 10
164.729662
 20
43.947951
 30
0.0
 10
161.219665
 20
45.600644
 30
0.0
 10
159.306480
 20
43.922833
 30
0.0
 10
160.486733
 20
40.226851
 30
0.0
 10
161.287116
 20
36.261064
 30
0.0
 10
159.633011
 20
34.991911
 30
0.0
 10
156.009560
 20
36.791359
 30
0.0
 10
152.745096
 20
38.888271
 30
0.0
 10
150.629558
 20
37.474619
 30
0.0
 10
151.317333
 20
33.656153
 30
0.0
 10
151.593065
 20
29.619811
 30
0.0
 10
149.787407
 20
28.577282
 30
0.0
 10
146.429809
 20
30.834495
 30
0.0
 10
143.467040
 20
33.339217
 30
0.0
 10
141.184991
 20
32.213997
 30
0.0
 10
141.368436
 20
28.338522
 30
0.0
 10
141.115000
 20
24.300486
 30
0.0
 10
139.188833
 20
23.502644
 30
0.0
 10
136.154662
 20
26.178675
 30
0.0
 10
133.543825
 20
29.048875
 30
0.0
 10
131.134493
 20
28.230995
 30
0.0
 10
130.810502
 20
24.364833
 30
0.0
 10
130.032416
 20
20.394531
 30
0.0
 10
128.018478
 20
19.854922
 30
0.0
 10
125.359380
 20
22.904051
 30
0.0
 10
123.145911
 20
26.090339
 30
0.0
 10
120.650220
 20
25.593911
 30
0.0
 10
119.824438
 20
21.803102
 30
0.0
 10
118.534682
 20
17.968548
 30
0.0
 10
116.467687
 20
17.696204
 30
0.0
 10
114.229382
 20
21.066502
 30
0.0
 10
112.450536
 20
24.514411
 30
0.0
 10
109.911382
 20
24.348182
 30
0.0
 10
108.597920
 20
20.697355
 30
0.0
 10
106.818791
 20
17.064026
 30
0.0
 10
104.733733
 20
17.064026
 30
0.0
 10
102.954605
 20
20.697355
 30
0.0
 10
101.641142
 20
24.348182
 30
0.0
 10
99.101989
 20
24.514411
 30
0.0
 10
97.323142
 20
21.066502
 30
0.0
 10
95.084838
 20
17.696204
 30
0.0
 10
93.017842
 20
17.968548
 30
0.0
 10
91.728087
 20
21.803102
 30
0.0
 10
90.902305
 20
25.593911
 30
0.0
 10
88.406613
 20
26.090339
 30
0.0
 10
86.193145
 20
22.904051
 30
0.0
 10
83.534047
 20
19.854922
 30
0.0
 10
81.520109
 20
20.394531
 30
0.0
 10
80.742022
 20
24.364833
 30
0.0
 10
80.418031
 20
28.230995
 30
0.0
 10
78.008700
 20
29.048875
 30
0.0
 10
75.397862
 20
26.178675
 30
0.0
 10
72.363691
 20
23.502644
 30
0.0
 10
70.437525
 20
24.300486
 30
0.0
 10
70.184089
 20
28.338522
 30
0.0
 10
70.367533
 20
32.213997
 30
0.0
 10
68.085485
 20
33.339217
 30
0.0
 10
65.122716
 20
30.834495
 30
0.0
 10
61.765118
 20
28.577282
 30
0.0
 10
59.959460
 20
29.619811
 30
0.0
 10
60.235191
 20
33.656153
 30
0.0
 10
60.922967
 20
37.474619
 30
0.0
 10
58.807429
 20
38.888271
 30
0.0
 10
55.542965
 20
36.791359
 30
0.0
 10
51.919513
 20
34.991911
 30
0.0
 10
50.265409
 20
36.261064
 30
0.0
 10
51.065791
 20
40.226851
 30
0.0
 10
52.246045
 20
43.922833
 30
0.0
 10
50.332860
 20
45.600644
 30
0.0
 10
46.822862
 20
43.947951
 30
0.0
 10
42.995365
 20
42.636746
 30
0.0
 10
41.521036
 20
44.111075
 30
0.0
 10
42.832240
 20
47.938573
 30
0.0
 10
44.484933
 20
51.448571
 30
0.0
 10
42.807122
 20
53.361755
 30
0.0
 10
39.111140
 20
52.181502
 30
0.0
 10
35.145353
 20
51.381119
 30
0.0
 10
33.876200
 20
53.035224
 30
0.0
 10
35.675649
 20
56.658675
 30
0.0
 10
37.772560
 20
59.923139
 30
0.0
 10
36.358909
 20
62.038677
 30
0.0
 10
32.540442
 20
61.350902
 30
0.0
 10
28.504100
 20
61.075171
 30
0.0
 10
27.461571
 20
62.880828
 30
0.0
 10
29.718785
 20
66.238426
 30
0.0
 10
32.223507
 20
69.201195
 30
0.0
 10
31.098287
 20
71.483244
 30
0.0
 10
27.222811
 20
71.299799
 30
0.0
 10
23.184776
 20
71.553235
 30
0.0
 10
22.386933
 20
73.479402
 30
0.0
 10
25.062965
 20
76.513573
 30
0.0
 10
27.933165
 20
79.124411
 30
0.0
 10
27.115285
 20
81.533742
 30
0.0
 10
23.249122
 20
81.857733
 30
0.0
 10
19.278820
 20
82.635819
 30
0.0
 10
18.739211
 20
84.649757
 30
0.0
 10
21.788340
 20
87.308855
 30
0.0
 10
24.974629
 20
89.522324
 30
0.0
 10
24.478200
 20
92.018015
 30
0.0
 10
20.687391
 20
92.843797
 30
0.0
 10
16.852838
 20
94.133553
 30
0.0
 10
16.580493
 20
96.200548
 30
0.0
 10
19.950791
 20
98.438853
 30
0.0
 10
23.398700
 20
100.217699
 30
0.0
 10
23.232471
 20
102.756853
 30
0.0
 10
19.581645
 20
104.070315
 30
0.0
 10
15.948316
 20
105.849444
 30
0.0
 10
15.948316
 20
107.934502
 30
0.0
 10
19.581645
 20
109.713631
 30
0.0
 10
23.232471
 20
111.027093
 30
0.0
 10
23.398700
 20
113.566246
 30
0.0
 10
19.950791
 20
115.345093
 30
0.0
 10
16.580493
 20
117.583397
 30
0.0
 10
16.852838
 20
119.650393
 30
0.0
 10
20.687391
 20
120.940148
 30
0.0
 10
24.478200
 20
121.765931
 30
0.0
 10
24.974629
 20
124.261622
 30
0.0
 10
21.788340
 20
126.475091
 30
0.0
 10
18.739211
 20
129.134188
 30
0.0
 10
19.278820
 20
131.148126
 30
0.0
 10
23.249122
 20
131.926213
 30
0.0
 10
27.115285
 20
132.250204
 30
0.0
 10
27.933165
 20
134.659535
 30
0.0
 10
25.062965
 20
137.270373
 30
0.0
 10
22.386933
 20
140.304544
 30
0.0
 10
23.184776
 20
142.230711
 30
0.0
 10
27.222811
 20
142.484146
 30
0.0
 10
31.098287
 20
142.300702
 30
0.0
 10
32.223507
 20
144.582751
 30
0.0
 10
29.718785
 20
147.545519
 30
0.0
 10
27.461571
 20
150.903117
 30
0.0
 10
28.504100
 20
152.708775
 30
0.0
 10
32.540442
 20
152.433044
 30
0.0
 10
36.358909
 20
151.745268
 30
0.0
 10
37.772560
 20
153.860806
 30
0.0
 10
35.675649
 20
157.125271
 30
0.0
 10
33.876200
 20
160.748722
 30
0.0
 10
35.145353
 20
162.402826
 30
0.0
 10
39.111140
 20
161.602444
 30
0.0
 10
42.807122
 20
160.422191
 30
0.0
 10
44.484933
 20
162.335375
 30
0.0
 10
42.832240
 20
165.845373
 30
0.0
 10
41.521036
 20
169.672871
 30
0.0
 10
42.995365
 20
171.147199
 30
0.0
 10
46.822862
 20
169.835995
 30
0.0
 10
50.332860
 20
168.183302
 30
0.0
 10
52.246045
 20
169.861113
 30
0.0
 10
51.065791
 20
173.557095
 30
0.0
 10
50.265409
 20
177.522882
 30
0.0
 10
51.919513
 20
178.792035
 30
0.0
 10
55.542965
 20
176.992586
 30
0.0
 10
58.807429
 20
174.895675
 30
0.0
 10
60.922967
 20
176.309326
 30
0.0
 10
60.235191
 20
180.127793
 30
0.0
 10
59.959460
 20
184.164135
 30
0.0
 10
61.765118
 20
185.206664
 30
0.0
 10
65.122716
 20
182.949451
 30
0.0
 10
68.085485
 20
180.444728
 30
0.0
 10
70.367533
 20
181.569948
 30
0.0
 10
70.184089
 20
185.445424
 30
0.0
 10
70.437525
 20
189.483459
 30
0.0
 10
72.363691
 20
190.281302
 30
0.0
 10
75.397862
 20
187.605271
 30
0.0
 10
78.008700
 20
184.735071
 30
0.0
 10
80.418031
 20
185.552951
 30
0.0
 10
80.742022
 20
189.419113
 30
0.0
 10
81.520109
 20
193.389415
 30
0.0
 10
83.534047
 20
193.929024
 30
0.0
 10
86.193145
 20
190.879895
 30
0.0
 10
88.406613
 20
187.693606
 30
0.0
 10
90.902305
 20
188.190035
 30
0.0
 10
91.728087
 20
191.980844
 30
0.0
 10
93.017842
 20
195.815397
 30
0.0
 10
95.084838
 20
196.087742
 30
0.0
 10
97.323142
 20
192.717444
 30
0.0
 10
99.101989
 20
189.269535
 30
0.0
 10
101.641142
 20
189.435764
 30
0.0
 10
102.954605
 20
193.086591
 30
0.0
 10
104.733733
 20
196.719919
 30
0.0
 10
106.818791
 20
196.719919
 30
0.0
 10
108.597920
 20
193.086591
 30
0.0
 10
109.911382
 20
189.435764
 30
0.0
 10
112.450536
 20
189.269535
 30
0.0
 10
114.229382
 20
192.717444
 30
0.0
 10
116.467687
 20
196.087742
 30
0.0
 10
118.534682
 20
195.815397
 30
0.0
 10
119.824438
 20
191.980844
 30
0.0
 10
120.650220
 20
188.190035
 30
0.0
 10
123.145911
 20
187.693606
 30
0.0
 10
125.359380
 20
190.879895
 30
0.0
 10
128.018478
 20
193.929024
 30
0.0
 10
130.032416
 20
193.389415
 30
0.0
 10
130.810502
 20
189.419113
 30
0.0
 10
131.134493
 20
185.552951
 30
0.0
 10
133.543825
 20
184.735071
 30
0.0
 10
136.154662
 20
187.605271
 30
0.0
 10
139.188833
 20
190.281302
 30
0.0
 10
141.115000
 20
189.483459
 30
0.0
 10
141.368436
 20
185.445424
 30
0.0
 10
141.184991
 20
181.569948
 30
0.0
 10
143.467040
 20
180.444728
 30
0.0
 10
146.429809
 20
182.949451
 30
0.0
 10
149.787407
 20
185.206664
 30
0.0
 10
151.593065
 20
184.164135
 30
0.0
 10
151.317333
 20
180.127793
 30
0.0
 10
150.629558
 20
176.309326
 30
0.0
 10
152.745096
 20
174.895675
 30
0.0
 10
156.009560
 20
176.992586
 30
0.0
 10
159.633011
 20
178.792035
 30
0.0
 10
161.287116
 20
177.522882
 30
0.0
 10
160.486733
 20
173.557095
 30
0.0
 10
159.306480
 20
169.861113
 30
0.0
 10
161.219665
 20
168.183302
 30
0.0
 10
164.729662
 20
169.835995
 30
0.0
 10
168.557160
 20
171.147199
 30
0.0
 10
170.031489
 20
169.672871
 30
0.0
 10
168.720285
 20
165.845373
 30
0.0
 10
167.067591
 20
162.335375
 30
0.0
 10
168.745402
 20
160.422191
 30
0.0
 10
172.441385
 20
161.602444
 30
0.0
 10
176.407171
 20
162.402826
 30
0.0
 10
177.676325
 20
160.748722
 30
0.0
 10
175.876876
 20
157.125271
 30
0.0
 10
173.779965
 20
153.860806
 30
0.0
 10
175.193616
 20
151.745268
 30
0.0
 10
179.012082
 20
152.433044
 30
0.0
 10
183.048425
 20
152.708775
 30
0.0
 10
184.090953
 20
150.903117
 30
0.0
 10
181.833740
 20
147.545519
 30
0.0
 10
179.329018
 20
144.582751
 30
0.0
 10
180.454238
 20
142.300702
 30
0.0
 10
184.329713
 20
142.484146
 30
0.0
 10
188.367749
 20
142.230711
 30
0.0
 10
189.165591
 20
140.304544
 30
0.0
 10
186.489560
 20
137.270373
 30
0.0
 10
183.619360
 20
134.659535
 30
0.0
 10
184.437240
 20
132.250204
 30
0.0
 10
188.303402
 20
131.926213
 30
0.0
 10
192.273705
 20
131.148126
 30
0.0
 10
192.813313
 20
129.134188
 30
0.0
 10
189.764185
 20
126.475091
 30
0.0
 10
186.577896
 20
124.261622
 30
0.0
 10
187.074325
 20
121.765931
 30
0.0
 10
190.865133
 20
120.940148
 30
0.0
 10
194.699687
 20
119.650393
 30
0.0
 10
194.972031
 20
117.583397
 30
0.0
 10
191.601733
 20
115.345093
 30
0.0
 10
188.153825
 20
113.566246
 30
0.0
 10
188.320053
 20
111.027093
 30
0.0
  0
ENDSEC
  0
SECTION
  2
OBJECTS
  0
DICTIONARY
  5
C
330
0
100
AcDbDictionary
  3
ACAD_GROUP
350
D
  3
ACAD_MLINESTYLE
350
17
  0
DICTIONARY
  5
D
330
C
100
AcDbDictionary
  0
DICTIONARY
  5
1A
330
C
100
AcDbDictionary
  0
DICTIONARY
  5
17
330
C
100
AcDbDictionary
  3
STANDARD
350
18
  0
DICTIONARY
  5
19
330
C
100
AcDbDictionary
  0
ENDSEC
  0
EOF
